<mxfile host="app.diagrams.net" modified="2021-10-09T12:14:13.586Z" agent="5.0 (Macintosh; Intel Mac OS X 10_15_7) AppleWebKit/537.36 (KHTML, like Gecko) Chrome/94.0.4606.61 Safari/537.36" etag="2cyXNYGf5BL-_EgK4WbE" version="15.4.0" type="github">
  <diagram id="dv9ucSk6ubNpaDmdco6W" name="第 1 页">
    <mxGraphModel dx="3443" dy="1923" grid="1" gridSize="10" guides="1" tooltips="1" connect="1" arrows="1" fold="1" page="1" pageScale="1" pageWidth="827" pageHeight="1169" math="0" shadow="0">
      <root>
        <mxCell id="0" />
        <mxCell id="1" parent="0" />
        <mxCell id="j4kyOug0QfXY_9LdXEBC-1" value="商品排期" style="swimlane;startSize=20;" vertex="1" parent="1">
          <mxGeometry x="110" y="390" width="480" height="8870" as="geometry" />
        </mxCell>
        <mxCell id="j4kyOug0QfXY_9LdXEBC-13" value="" style="edgeStyle=orthogonalEdgeStyle;rounded=0;orthogonalLoop=1;jettySize=auto;html=1;" edge="1" parent="j4kyOug0QfXY_9LdXEBC-1" source="j4kyOug0QfXY_9LdXEBC-11" target="j4kyOug0QfXY_9LdXEBC-12">
          <mxGeometry relative="1" as="geometry" />
        </mxCell>
        <mxCell id="j4kyOug0QfXY_9LdXEBC-11" value="用户选择城计划" style="rounded=1;whiteSpace=wrap;html=1;" vertex="1" parent="j4kyOug0QfXY_9LdXEBC-1">
          <mxGeometry x="150" y="50" width="120" height="40" as="geometry" />
        </mxCell>
        <mxCell id="j4kyOug0QfXY_9LdXEBC-15" value="" style="edgeStyle=orthogonalEdgeStyle;rounded=0;orthogonalLoop=1;jettySize=auto;html=1;" edge="1" parent="j4kyOug0QfXY_9LdXEBC-1" source="j4kyOug0QfXY_9LdXEBC-12" target="j4kyOug0QfXY_9LdXEBC-14">
          <mxGeometry relative="1" as="geometry" />
        </mxCell>
        <mxCell id="j4kyOug0QfXY_9LdXEBC-12" value="用户选择日期" style="rounded=1;whiteSpace=wrap;html=1;" vertex="1" parent="j4kyOug0QfXY_9LdXEBC-1">
          <mxGeometry x="150" y="120" width="120" height="40" as="geometry" />
        </mxCell>
        <mxCell id="j4kyOug0QfXY_9LdXEBC-17" value="" style="edgeStyle=orthogonalEdgeStyle;rounded=0;orthogonalLoop=1;jettySize=auto;html=1;" edge="1" parent="j4kyOug0QfXY_9LdXEBC-1" source="j4kyOug0QfXY_9LdXEBC-14">
          <mxGeometry relative="1" as="geometry">
            <mxPoint x="210.5" y="280" as="targetPoint" />
          </mxGeometry>
        </mxCell>
        <mxCell id="j4kyOug0QfXY_9LdXEBC-14" value="根据条件筛选商品" style="rounded=1;whiteSpace=wrap;html=1;" vertex="1" parent="j4kyOug0QfXY_9LdXEBC-1">
          <mxGeometry x="150" y="195" width="120" height="40" as="geometry" />
        </mxCell>
        <mxCell id="j4kyOug0QfXY_9LdXEBC-24" value="否" style="edgeStyle=orthogonalEdgeStyle;rounded=0;orthogonalLoop=1;jettySize=auto;html=1;entryX=0.5;entryY=0;entryDx=0;entryDy=0;" edge="1" parent="j4kyOug0QfXY_9LdXEBC-1" source="j4kyOug0QfXY_9LdXEBC-20">
          <mxGeometry relative="1" as="geometry">
            <mxPoint x="210" y="390" as="targetPoint" />
          </mxGeometry>
        </mxCell>
        <mxCell id="j4kyOug0QfXY_9LdXEBC-20" value="是否加入商品排期" style="rhombus;whiteSpace=wrap;html=1;" vertex="1" parent="j4kyOug0QfXY_9LdXEBC-1">
          <mxGeometry x="155" y="280" width="110" height="60" as="geometry" />
        </mxCell>
        <mxCell id="j4kyOug0QfXY_9LdXEBC-27" value="是" style="edgeStyle=orthogonalEdgeStyle;rounded=0;orthogonalLoop=1;jettySize=auto;html=1;entryX=0.5;entryY=0;entryDx=0;entryDy=0;" edge="1" parent="j4kyOug0QfXY_9LdXEBC-1" target="j4kyOug0QfXY_9LdXEBC-26">
          <mxGeometry relative="1" as="geometry">
            <mxPoint x="210" y="430" as="sourcePoint" />
          </mxGeometry>
        </mxCell>
        <mxCell id="j4kyOug0QfXY_9LdXEBC-32" value="" style="edgeStyle=orthogonalEdgeStyle;rounded=0;orthogonalLoop=1;jettySize=auto;html=1;" edge="1" parent="j4kyOug0QfXY_9LdXEBC-1" source="j4kyOug0QfXY_9LdXEBC-26" target="j4kyOug0QfXY_9LdXEBC-31">
          <mxGeometry relative="1" as="geometry" />
        </mxCell>
        <mxCell id="j4kyOug0QfXY_9LdXEBC-26" value="是否批量加入商品排期" style="rhombus;whiteSpace=wrap;html=1;" vertex="1" parent="j4kyOug0QfXY_9LdXEBC-1">
          <mxGeometry x="155" y="500" width="110" height="60" as="geometry" />
        </mxCell>
        <mxCell id="j4kyOug0QfXY_9LdXEBC-38" style="edgeStyle=orthogonalEdgeStyle;rounded=0;orthogonalLoop=1;jettySize=auto;html=1;exitX=0;exitY=0.5;exitDx=0;exitDy=0;entryX=0.5;entryY=0;entryDx=0;entryDy=0;" edge="1" parent="j4kyOug0QfXY_9LdXEBC-1" source="j4kyOug0QfXY_9LdXEBC-31" target="j4kyOug0QfXY_9LdXEBC-37">
          <mxGeometry relative="1" as="geometry" />
        </mxCell>
        <mxCell id="j4kyOug0QfXY_9LdXEBC-39" value="否" style="edgeLabel;html=1;align=center;verticalAlign=middle;resizable=0;points=[];" vertex="1" connectable="0" parent="j4kyOug0QfXY_9LdXEBC-38">
          <mxGeometry x="0.1111" relative="1" as="geometry">
            <mxPoint as="offset" />
          </mxGeometry>
        </mxCell>
        <mxCell id="j4kyOug0QfXY_9LdXEBC-43" value="是" style="edgeStyle=orthogonalEdgeStyle;rounded=0;orthogonalLoop=1;jettySize=auto;html=1;" edge="1" parent="j4kyOug0QfXY_9LdXEBC-1" source="j4kyOug0QfXY_9LdXEBC-31" target="j4kyOug0QfXY_9LdXEBC-42">
          <mxGeometry relative="1" as="geometry" />
        </mxCell>
        <mxCell id="j4kyOug0QfXY_9LdXEBC-31" value="是否下载" style="rhombus;whiteSpace=wrap;html=1;" vertex="1" parent="j4kyOug0QfXY_9LdXEBC-1">
          <mxGeometry x="155" y="610" width="110" height="60" as="geometry" />
        </mxCell>
        <mxCell id="j4kyOug0QfXY_9LdXEBC-35" style="edgeStyle=orthogonalEdgeStyle;rounded=0;orthogonalLoop=1;jettySize=auto;html=1;entryX=0.5;entryY=0;entryDx=0;entryDy=0;" edge="1" parent="j4kyOug0QfXY_9LdXEBC-1" source="j4kyOug0QfXY_9LdXEBC-33" target="j4kyOug0QfXY_9LdXEBC-34">
          <mxGeometry relative="1" as="geometry" />
        </mxCell>
        <mxCell id="j4kyOug0QfXY_9LdXEBC-36" value="否" style="edgeLabel;html=1;align=center;verticalAlign=middle;resizable=0;points=[];" vertex="1" connectable="0" parent="j4kyOug0QfXY_9LdXEBC-35">
          <mxGeometry x="0.12" y="1" relative="1" as="geometry">
            <mxPoint as="offset" />
          </mxGeometry>
        </mxCell>
        <mxCell id="j4kyOug0QfXY_9LdXEBC-33" value="是否点击商品选择框" style="rhombus;whiteSpace=wrap;html=1;" vertex="1" parent="j4kyOug0QfXY_9LdXEBC-1">
          <mxGeometry x="155" y="390" width="110" height="60" as="geometry" />
        </mxCell>
        <mxCell id="j4kyOug0QfXY_9LdXEBC-34" value="完成商品盘点" style="rounded=1;whiteSpace=wrap;html=1;" vertex="1" parent="j4kyOug0QfXY_9LdXEBC-1">
          <mxGeometry x="50" y="510" width="90" height="40" as="geometry" />
        </mxCell>
        <mxCell id="j4kyOug0QfXY_9LdXEBC-37" value="完成商品盘点" style="rounded=1;whiteSpace=wrap;html=1;" vertex="1" parent="j4kyOug0QfXY_9LdXEBC-1">
          <mxGeometry x="50" y="730" width="90" height="40" as="geometry" />
        </mxCell>
        <mxCell id="j4kyOug0QfXY_9LdXEBC-45" value="" style="edgeStyle=orthogonalEdgeStyle;rounded=0;orthogonalLoop=1;jettySize=auto;html=1;" edge="1" parent="j4kyOug0QfXY_9LdXEBC-1" source="j4kyOug0QfXY_9LdXEBC-42" target="j4kyOug0QfXY_9LdXEBC-44">
          <mxGeometry relative="1" as="geometry" />
        </mxCell>
        <mxCell id="j4kyOug0QfXY_9LdXEBC-42" value="导出excel" style="rounded=1;whiteSpace=wrap;html=1;" vertex="1" parent="j4kyOug0QfXY_9LdXEBC-1">
          <mxGeometry x="165" y="730" width="90" height="40" as="geometry" />
        </mxCell>
        <mxCell id="j4kyOug0QfXY_9LdXEBC-44" value="完成商品盘点" style="rounded=1;whiteSpace=wrap;html=1;" vertex="1" parent="j4kyOug0QfXY_9LdXEBC-1">
          <mxGeometry x="165" y="820" width="90" height="40" as="geometry" />
        </mxCell>
        <mxCell id="j4kyOug0QfXY_9LdXEBC-92" value="用户选择城计划" style="rounded=1;whiteSpace=wrap;html=1;" vertex="1" parent="j4kyOug0QfXY_9LdXEBC-1">
          <mxGeometry x="177" y="920" width="120" height="40" as="geometry" />
        </mxCell>
        <mxCell id="j4kyOug0QfXY_9LdXEBC-254" style="edgeStyle=orthogonalEdgeStyle;rounded=0;orthogonalLoop=1;jettySize=auto;html=1;entryX=0.5;entryY=0;entryDx=0;entryDy=0;endArrow=classic;endFill=1;" edge="1" parent="j4kyOug0QfXY_9LdXEBC-1" source="j4kyOug0QfXY_9LdXEBC-94" target="j4kyOug0QfXY_9LdXEBC-251">
          <mxGeometry relative="1" as="geometry" />
        </mxCell>
        <mxCell id="j4kyOug0QfXY_9LdXEBC-94" value="用户选择日期" style="rounded=1;whiteSpace=wrap;html=1;" vertex="1" parent="j4kyOug0QfXY_9LdXEBC-1">
          <mxGeometry x="177" y="990" width="120" height="40" as="geometry" />
        </mxCell>
        <mxCell id="j4kyOug0QfXY_9LdXEBC-91" value="" style="edgeStyle=orthogonalEdgeStyle;rounded=0;orthogonalLoop=1;jettySize=auto;html=1;" edge="1" parent="j4kyOug0QfXY_9LdXEBC-1" source="j4kyOug0QfXY_9LdXEBC-92" target="j4kyOug0QfXY_9LdXEBC-94">
          <mxGeometry relative="1" as="geometry" />
        </mxCell>
        <mxCell id="j4kyOug0QfXY_9LdXEBC-95" value="" style="edgeStyle=orthogonalEdgeStyle;rounded=0;orthogonalLoop=1;jettySize=auto;html=1;" edge="1" parent="j4kyOug0QfXY_9LdXEBC-1" source="j4kyOug0QfXY_9LdXEBC-96">
          <mxGeometry relative="1" as="geometry">
            <mxPoint x="237.5" y="1270" as="targetPoint" />
          </mxGeometry>
        </mxCell>
        <mxCell id="j4kyOug0QfXY_9LdXEBC-96" value="根据条件筛选商品" style="rounded=1;whiteSpace=wrap;html=1;" vertex="1" parent="j4kyOug0QfXY_9LdXEBC-1">
          <mxGeometry x="177" y="1185" width="120" height="40" as="geometry" />
        </mxCell>
        <mxCell id="j4kyOug0QfXY_9LdXEBC-102" style="edgeStyle=orthogonalEdgeStyle;rounded=0;orthogonalLoop=1;jettySize=auto;html=1;entryX=0.5;entryY=0;entryDx=0;entryDy=0;endArrow=classic;endFill=1;" edge="1" parent="j4kyOug0QfXY_9LdXEBC-1" source="j4kyOug0QfXY_9LdXEBC-100" target="j4kyOug0QfXY_9LdXEBC-101">
          <mxGeometry relative="1" as="geometry" />
        </mxCell>
        <mxCell id="j4kyOug0QfXY_9LdXEBC-100" value="实时查询商品供应商数据" style="rounded=1;whiteSpace=wrap;html=1;" vertex="1" parent="j4kyOug0QfXY_9LdXEBC-1">
          <mxGeometry x="177" y="1270" width="120" height="40" as="geometry" />
        </mxCell>
        <mxCell id="j4kyOug0QfXY_9LdXEBC-114" style="edgeStyle=orthogonalEdgeStyle;rounded=0;orthogonalLoop=1;jettySize=auto;html=1;entryX=0.5;entryY=0;entryDx=0;entryDy=0;endArrow=classic;endFill=1;" edge="1" parent="j4kyOug0QfXY_9LdXEBC-1" source="j4kyOug0QfXY_9LdXEBC-101" target="j4kyOug0QfXY_9LdXEBC-107">
          <mxGeometry relative="1" as="geometry" />
        </mxCell>
        <mxCell id="j4kyOug0QfXY_9LdXEBC-101" value="实时查询商品采购价" style="rounded=1;whiteSpace=wrap;html=1;" vertex="1" parent="j4kyOug0QfXY_9LdXEBC-1">
          <mxGeometry x="177" y="1360" width="120" height="40" as="geometry" />
        </mxCell>
        <mxCell id="j4kyOug0QfXY_9LdXEBC-210" style="edgeStyle=orthogonalEdgeStyle;rounded=0;orthogonalLoop=1;jettySize=auto;html=1;endArrow=classic;endFill=1;" edge="1" parent="j4kyOug0QfXY_9LdXEBC-1" source="j4kyOug0QfXY_9LdXEBC-103" target="j4kyOug0QfXY_9LdXEBC-209">
          <mxGeometry relative="1" as="geometry" />
        </mxCell>
        <mxCell id="j4kyOug0QfXY_9LdXEBC-103" value="&lt;span&gt;实时查询商品拼拼价&lt;/span&gt;" style="rounded=1;whiteSpace=wrap;html=1;" vertex="1" parent="j4kyOug0QfXY_9LdXEBC-1">
          <mxGeometry x="177" y="1530" width="120" height="40" as="geometry" />
        </mxCell>
        <mxCell id="j4kyOug0QfXY_9LdXEBC-115" style="edgeStyle=orthogonalEdgeStyle;rounded=0;orthogonalLoop=1;jettySize=auto;html=1;entryX=0.5;entryY=0;entryDx=0;entryDy=0;endArrow=classic;endFill=1;" edge="1" parent="j4kyOug0QfXY_9LdXEBC-1" source="j4kyOug0QfXY_9LdXEBC-107" target="j4kyOug0QfXY_9LdXEBC-103">
          <mxGeometry relative="1" as="geometry" />
        </mxCell>
        <mxCell id="j4kyOug0QfXY_9LdXEBC-107" value="实时查询商品团期库存" style="rounded=1;whiteSpace=wrap;html=1;" vertex="1" parent="j4kyOug0QfXY_9LdXEBC-1">
          <mxGeometry x="177" y="1444" width="120" height="40" as="geometry" />
        </mxCell>
        <mxCell id="j4kyOug0QfXY_9LdXEBC-77" value="创建商品排期" style="rounded=0;whiteSpace=wrap;html=1;" vertex="1" parent="j4kyOug0QfXY_9LdXEBC-1">
          <mxGeometry y="870" width="30" height="2620" as="geometry" />
        </mxCell>
        <mxCell id="j4kyOug0QfXY_9LdXEBC-6" value="商品盘点" style="rounded=0;whiteSpace=wrap;html=1;" vertex="1" parent="j4kyOug0QfXY_9LdXEBC-1">
          <mxGeometry y="20" width="30" height="880" as="geometry" />
        </mxCell>
        <mxCell id="j4kyOug0QfXY_9LdXEBC-189" style="edgeStyle=orthogonalEdgeStyle;rounded=0;orthogonalLoop=1;jettySize=auto;html=1;entryX=0.5;entryY=0;entryDx=0;entryDy=0;endArrow=classic;endFill=1;" edge="1" parent="j4kyOug0QfXY_9LdXEBC-1">
          <mxGeometry relative="1" as="geometry">
            <mxPoint x="242" y="1702" as="sourcePoint" />
            <mxPoint x="408.5" y="1744" as="targetPoint" />
            <Array as="points">
              <mxPoint x="242" y="1722" />
              <mxPoint x="409" y="1722" />
            </Array>
          </mxGeometry>
        </mxCell>
        <mxCell id="j4kyOug0QfXY_9LdXEBC-190" style="edgeStyle=orthogonalEdgeStyle;rounded=0;orthogonalLoop=1;jettySize=auto;html=1;entryX=0.5;entryY=0;entryDx=0;entryDy=0;endArrow=classic;endFill=1;exitX=0.5;exitY=1;exitDx=0;exitDy=0;" edge="1" parent="j4kyOug0QfXY_9LdXEBC-1" source="j4kyOug0QfXY_9LdXEBC-209">
          <mxGeometry relative="1" as="geometry">
            <mxPoint x="237" y="1660" as="sourcePoint" />
            <mxPoint x="100" y="1743" as="targetPoint" />
            <Array as="points">
              <mxPoint x="242" y="1660" />
              <mxPoint x="242" y="1722" />
              <mxPoint x="100" y="1722" />
            </Array>
          </mxGeometry>
        </mxCell>
        <mxCell id="j4kyOug0QfXY_9LdXEBC-194" value="总部-商品共享" style="rhombus;whiteSpace=wrap;html=1;" vertex="1" parent="j4kyOug0QfXY_9LdXEBC-1">
          <mxGeometry x="40" y="1743" width="120" height="70" as="geometry" />
        </mxCell>
        <mxCell id="j4kyOug0QfXY_9LdXEBC-199" value="是否区域-供应商提报" style="rhombus;whiteSpace=wrap;html=1;" vertex="1" parent="j4kyOug0QfXY_9LdXEBC-1">
          <mxGeometry x="345" y="1742" width="127" height="70" as="geometry" />
        </mxCell>
        <mxCell id="j4kyOug0QfXY_9LdXEBC-211" style="edgeStyle=orthogonalEdgeStyle;rounded=0;orthogonalLoop=1;jettySize=auto;html=1;entryX=0.5;entryY=0;entryDx=0;entryDy=0;endArrow=classic;endFill=1;" edge="1" parent="j4kyOug0QfXY_9LdXEBC-1" source="j4kyOug0QfXY_9LdXEBC-200" target="j4kyOug0QfXY_9LdXEBC-201">
          <mxGeometry relative="1" as="geometry" />
        </mxCell>
        <mxCell id="j4kyOug0QfXY_9LdXEBC-200" value="自动填充团期库存可修改" style="rounded=1;whiteSpace=wrap;html=1;" vertex="1" parent="j4kyOug0QfXY_9LdXEBC-1">
          <mxGeometry x="40" y="1876" width="120" height="40" as="geometry" />
        </mxCell>
        <mxCell id="j4kyOug0QfXY_9LdXEBC-191" value="是" style="edgeStyle=orthogonalEdgeStyle;rounded=0;orthogonalLoop=1;jettySize=auto;html=1;entryX=0.5;entryY=0;entryDx=0;entryDy=0;endArrow=classic;endFill=1;" edge="1" parent="j4kyOug0QfXY_9LdXEBC-1" source="j4kyOug0QfXY_9LdXEBC-194" target="j4kyOug0QfXY_9LdXEBC-200">
          <mxGeometry relative="1" as="geometry" />
        </mxCell>
        <mxCell id="j4kyOug0QfXY_9LdXEBC-212" style="edgeStyle=orthogonalEdgeStyle;rounded=0;orthogonalLoop=1;jettySize=auto;html=1;entryX=0.5;entryY=0;entryDx=0;entryDy=0;endArrow=classic;endFill=1;" edge="1" parent="j4kyOug0QfXY_9LdXEBC-1" source="j4kyOug0QfXY_9LdXEBC-201" target="j4kyOug0QfXY_9LdXEBC-202">
          <mxGeometry relative="1" as="geometry" />
        </mxCell>
        <mxCell id="j4kyOug0QfXY_9LdXEBC-201" value="固定展示北京京东世纪信息技术有限公司" style="rounded=1;whiteSpace=wrap;html=1;" vertex="1" parent="j4kyOug0QfXY_9LdXEBC-1">
          <mxGeometry x="40" y="1960" width="120" height="40" as="geometry" />
        </mxCell>
        <mxCell id="j4kyOug0QfXY_9LdXEBC-218" value="" style="edgeStyle=orthogonalEdgeStyle;rounded=0;orthogonalLoop=1;jettySize=auto;html=1;endArrow=classic;endFill=1;" edge="1" parent="j4kyOug0QfXY_9LdXEBC-1" source="j4kyOug0QfXY_9LdXEBC-202" target="j4kyOug0QfXY_9LdXEBC-217">
          <mxGeometry relative="1" as="geometry" />
        </mxCell>
        <mxCell id="j4kyOug0QfXY_9LdXEBC-202" value="自动填充sku所在区域的采购价用户不可修改" style="rounded=1;whiteSpace=wrap;html=1;" vertex="1" parent="j4kyOug0QfXY_9LdXEBC-1">
          <mxGeometry x="40" y="2050" width="120" height="40" as="geometry" />
        </mxCell>
        <mxCell id="j4kyOug0QfXY_9LdXEBC-215" style="edgeStyle=orthogonalEdgeStyle;rounded=0;orthogonalLoop=1;jettySize=auto;html=1;entryX=0.5;entryY=0;entryDx=0;entryDy=0;endArrow=classic;endFill=1;" edge="1" parent="j4kyOug0QfXY_9LdXEBC-1" source="j4kyOug0QfXY_9LdXEBC-203" target="j4kyOug0QfXY_9LdXEBC-204">
          <mxGeometry relative="1" as="geometry" />
        </mxCell>
        <mxCell id="j4kyOug0QfXY_9LdXEBC-203" value="自动填充团期库存可修改" style="rounded=1;whiteSpace=wrap;html=1;" vertex="1" parent="j4kyOug0QfXY_9LdXEBC-1">
          <mxGeometry x="348" y="1878" width="120" height="40" as="geometry" />
        </mxCell>
        <mxCell id="j4kyOug0QfXY_9LdXEBC-197" style="edgeStyle=orthogonalEdgeStyle;rounded=0;orthogonalLoop=1;jettySize=auto;html=1;entryX=0.5;entryY=0;entryDx=0;entryDy=0;endArrow=classic;endFill=1;" edge="1" parent="j4kyOug0QfXY_9LdXEBC-1" target="j4kyOug0QfXY_9LdXEBC-203">
          <mxGeometry relative="1" as="geometry">
            <mxPoint x="408.5" y="1813" as="sourcePoint" />
          </mxGeometry>
        </mxCell>
        <mxCell id="j4kyOug0QfXY_9LdXEBC-198" value="是" style="edgeLabel;html=1;align=center;verticalAlign=middle;resizable=0;points=[];" vertex="1" connectable="0" parent="j4kyOug0QfXY_9LdXEBC-197">
          <mxGeometry x="-0.3282" y="2" relative="1" as="geometry">
            <mxPoint as="offset" />
          </mxGeometry>
        </mxCell>
        <mxCell id="j4kyOug0QfXY_9LdXEBC-216" style="edgeStyle=orthogonalEdgeStyle;rounded=0;orthogonalLoop=1;jettySize=auto;html=1;entryX=0.5;entryY=0;entryDx=0;entryDy=0;endArrow=classic;endFill=1;" edge="1" parent="j4kyOug0QfXY_9LdXEBC-1" source="j4kyOug0QfXY_9LdXEBC-204" target="j4kyOug0QfXY_9LdXEBC-205">
          <mxGeometry relative="1" as="geometry" />
        </mxCell>
        <mxCell id="j4kyOug0QfXY_9LdXEBC-204" value="&lt;br&gt;&lt;span style=&quot;background-color: rgb(255 , 255 , 255)&quot;&gt;展示提报的供应商，&lt;/span&gt;&lt;span style=&quot;background-color: rgb(255 , 255 , 255)&quot;&gt;不可编辑&lt;/span&gt;&lt;span style=&quot;background-color: rgb(255 , 255 , 255)&quot;&gt;&lt;br&gt;&lt;/span&gt;&lt;div class=&quot;page&quot; title=&quot;Page 9&quot;&gt;&lt;br&gt;		&lt;/div&gt;" style="rounded=1;whiteSpace=wrap;html=1;" vertex="1" parent="j4kyOug0QfXY_9LdXEBC-1">
          <mxGeometry x="348.5" y="1960" width="120" height="40" as="geometry" />
        </mxCell>
        <mxCell id="j4kyOug0QfXY_9LdXEBC-227" style="edgeStyle=orthogonalEdgeStyle;rounded=0;orthogonalLoop=1;jettySize=auto;html=1;entryX=0.5;entryY=0;entryDx=0;entryDy=0;endArrow=classic;endFill=1;" edge="1" parent="j4kyOug0QfXY_9LdXEBC-1" source="j4kyOug0QfXY_9LdXEBC-205" target="j4kyOug0QfXY_9LdXEBC-224">
          <mxGeometry relative="1" as="geometry" />
        </mxCell>
        <mxCell id="j4kyOug0QfXY_9LdXEBC-205" value="自动填充供应商提报采购价" style="rounded=1;whiteSpace=wrap;html=1;" vertex="1" parent="j4kyOug0QfXY_9LdXEBC-1">
          <mxGeometry x="348" y="2050" width="120" height="40" as="geometry" />
        </mxCell>
        <mxCell id="j4kyOug0QfXY_9LdXEBC-213" style="edgeStyle=orthogonalEdgeStyle;rounded=0;orthogonalLoop=1;jettySize=auto;html=1;entryX=0.5;entryY=0;entryDx=0;entryDy=0;endArrow=classic;endFill=1;" edge="1" parent="j4kyOug0QfXY_9LdXEBC-1" source="j4kyOug0QfXY_9LdXEBC-206" target="j4kyOug0QfXY_9LdXEBC-207">
          <mxGeometry relative="1" as="geometry" />
        </mxCell>
        <mxCell id="j4kyOug0QfXY_9LdXEBC-206" value="自动填充团期库存可修改" style="rounded=1;whiteSpace=wrap;html=1;" vertex="1" parent="j4kyOug0QfXY_9LdXEBC-1">
          <mxGeometry x="195" y="1876" width="120" height="40" as="geometry" />
        </mxCell>
        <mxCell id="j4kyOug0QfXY_9LdXEBC-192" style="edgeStyle=orthogonalEdgeStyle;rounded=0;orthogonalLoop=1;jettySize=auto;html=1;entryX=0.5;entryY=0;entryDx=0;entryDy=0;endArrow=classic;endFill=1;" edge="1" parent="j4kyOug0QfXY_9LdXEBC-1" source="j4kyOug0QfXY_9LdXEBC-194" target="j4kyOug0QfXY_9LdXEBC-206">
          <mxGeometry relative="1" as="geometry" />
        </mxCell>
        <mxCell id="j4kyOug0QfXY_9LdXEBC-193" value="否" style="edgeLabel;html=1;align=center;verticalAlign=middle;resizable=0;points=[];" vertex="1" connectable="0" parent="j4kyOug0QfXY_9LdXEBC-192">
          <mxGeometry x="-0.6373" y="3" relative="1" as="geometry">
            <mxPoint as="offset" />
          </mxGeometry>
        </mxCell>
        <mxCell id="j4kyOug0QfXY_9LdXEBC-195" style="edgeStyle=orthogonalEdgeStyle;rounded=0;orthogonalLoop=1;jettySize=auto;html=1;entryX=0.5;entryY=0;entryDx=0;entryDy=0;endArrow=classic;endFill=1;" edge="1" parent="j4kyOug0QfXY_9LdXEBC-1" target="j4kyOug0QfXY_9LdXEBC-206">
          <mxGeometry relative="1" as="geometry">
            <mxPoint x="345" y="1778" as="sourcePoint" />
          </mxGeometry>
        </mxCell>
        <mxCell id="j4kyOug0QfXY_9LdXEBC-196" value="否" style="edgeLabel;html=1;align=center;verticalAlign=middle;resizable=0;points=[];" vertex="1" connectable="0" parent="j4kyOug0QfXY_9LdXEBC-195">
          <mxGeometry x="-0.6915" y="-2" relative="1" as="geometry">
            <mxPoint as="offset" />
          </mxGeometry>
        </mxCell>
        <mxCell id="j4kyOug0QfXY_9LdXEBC-214" style="edgeStyle=orthogonalEdgeStyle;rounded=0;orthogonalLoop=1;jettySize=auto;html=1;entryX=0.5;entryY=0;entryDx=0;entryDy=0;endArrow=classic;endFill=1;" edge="1" parent="j4kyOug0QfXY_9LdXEBC-1" source="j4kyOug0QfXY_9LdXEBC-207" target="j4kyOug0QfXY_9LdXEBC-208">
          <mxGeometry relative="1" as="geometry" />
        </mxCell>
        <mxCell id="j4kyOug0QfXY_9LdXEBC-207" value="&lt;span style=&quot;background-color: rgb(255 , 255 , 255)&quot;&gt;展示 &lt;/span&gt;&lt;span style=&quot;background-color: rgb(255 , 255 , 255)&quot;&gt;s&lt;/span&gt;&lt;span style=&quot;background-color: rgb(255 , 255 , 255)&quot;&gt;k&lt;/span&gt;&lt;span style=&quot;background-color: rgb(255 , 255 , 255)&quot;&gt;u &lt;/span&gt;&lt;span style=&quot;background-color: rgb(255 , 255 , 255)&quot;&gt;的&lt;/span&gt;&lt;span style=&quot;background-color: rgb(255 , 255 , 255)&quot;&gt;默认&lt;/span&gt;&lt;span style=&quot;background-color: rgb(255 , 255 , 255)&quot;&gt;供&lt;/span&gt;&lt;span style=&quot;background-color: rgb(255 , 255 , 255)&quot;&gt;应商，&lt;/span&gt;&lt;span style=&quot;background-color: rgb(255 , 255 , 255)&quot;&gt;可&lt;/span&gt;&lt;span style=&quot;background-color: rgb(255 , 255 , 255)&quot;&gt;下&lt;/span&gt;&lt;span style=&quot;background-color: rgb(255 , 255 , 255)&quot;&gt;拉&lt;/span&gt;&lt;span style=&quot;background-color: rgb(255 , 255 , 255)&quot;&gt;更&lt;/span&gt;&lt;span style=&quot;background-color: rgb(255 , 255 , 255)&quot;&gt;改&lt;/span&gt;&lt;span style=&quot;background-color: rgb(255 , 255 , 255)&quot;&gt;&lt;br&gt;&lt;/span&gt;" style="rounded=1;whiteSpace=wrap;html=1;" vertex="1" parent="j4kyOug0QfXY_9LdXEBC-1">
          <mxGeometry x="195" y="1960" width="120" height="40" as="geometry" />
        </mxCell>
        <mxCell id="j4kyOug0QfXY_9LdXEBC-208" value="自动填充实时采购价" style="rounded=1;whiteSpace=wrap;html=1;" vertex="1" parent="j4kyOug0QfXY_9LdXEBC-1">
          <mxGeometry x="195" y="2050" width="120" height="40" as="geometry" />
        </mxCell>
        <mxCell id="j4kyOug0QfXY_9LdXEBC-209" value="展示待排期商品" style="rounded=1;whiteSpace=wrap;html=1;" vertex="1" parent="j4kyOug0QfXY_9LdXEBC-1">
          <mxGeometry x="177" y="1620" width="120" height="40" as="geometry" />
        </mxCell>
        <mxCell id="j4kyOug0QfXY_9LdXEBC-220" style="edgeStyle=orthogonalEdgeStyle;rounded=0;orthogonalLoop=1;jettySize=auto;html=1;entryX=0.5;entryY=0;entryDx=0;entryDy=0;endArrow=classic;endFill=1;" edge="1" parent="j4kyOug0QfXY_9LdXEBC-1" source="j4kyOug0QfXY_9LdXEBC-217" target="j4kyOug0QfXY_9LdXEBC-219">
          <mxGeometry relative="1" as="geometry" />
        </mxCell>
        <mxCell id="j4kyOug0QfXY_9LdXEBC-217" value="自动填充拼拼价" style="rounded=1;whiteSpace=wrap;html=1;" vertex="1" parent="j4kyOug0QfXY_9LdXEBC-1">
          <mxGeometry x="40" y="2130" width="120" height="40" as="geometry" />
        </mxCell>
        <mxCell id="j4kyOug0QfXY_9LdXEBC-223" value="" style="edgeStyle=orthogonalEdgeStyle;rounded=0;orthogonalLoop=1;jettySize=auto;html=1;endArrow=classic;endFill=1;" edge="1" parent="j4kyOug0QfXY_9LdXEBC-1" source="j4kyOug0QfXY_9LdXEBC-219" target="j4kyOug0QfXY_9LdXEBC-222">
          <mxGeometry relative="1" as="geometry" />
        </mxCell>
        <mxCell id="j4kyOug0QfXY_9LdXEBC-219" value="&lt;br class=&quot;Apple-interchange-newline&quot;&gt;&lt;br style=&quot;text-align: left&quot;&gt;&lt;div class=&quot;layoutArea&quot; style=&quot;text-align: left&quot;&gt;&lt;div class=&quot;column&quot;&gt;&lt;p&gt;&lt;span style=&quot;font-family: &amp;#34;simsun&amp;#34;&quot;&gt;默认&lt;/span&gt;&lt;span style=&quot;font-family: &amp;#34;simsun&amp;#34;&quot;&gt;填充&lt;/span&gt;&lt;span style=&quot;font-family: &amp;#34;simsun&amp;#34;&quot;&gt;所&lt;/span&gt;&lt;span style=&quot;font-family: &amp;#34;simsun&amp;#34;&quot;&gt;选&lt;/span&gt;&lt;span style=&quot;font-family: &amp;#34;simsun&amp;#34;&quot;&gt;日&lt;/span&gt;&lt;span style=&quot;font-family: &amp;#34;simsun&amp;#34;&quot;&gt;期&lt;br&gt;前&lt;/span&gt;&lt;span style=&quot;font-family: &amp;#34;simsun&amp;#34;&quot;&gt;一日&lt;/span&gt;&lt;span style=&quot;font-family: &amp;#34;simsun&amp;#34;&quot;&gt;的 22&lt;/span&gt;&lt;span style=&quot;font-family: &amp;#34;simsun&amp;#34;&quot;&gt;:&lt;/span&gt;&lt;span style=&quot;font-family: &amp;#34;simsun&amp;#34;&quot;&gt;00&lt;/span&gt;&lt;span style=&quot;font-family: &amp;#34;simsun&amp;#34;&quot;&gt;:&lt;/span&gt;&lt;span style=&quot;font-family: &amp;#34;simsun&amp;#34;&quot;&gt;00&lt;br&gt;&lt;/span&gt;&lt;/p&gt;&lt;br&gt;&lt;/div&gt;&lt;br&gt;&lt;/div&gt;" style="rounded=1;whiteSpace=wrap;html=1;" vertex="1" parent="j4kyOug0QfXY_9LdXEBC-1">
          <mxGeometry x="40" y="2210" width="120" height="40" as="geometry" />
        </mxCell>
        <mxCell id="j4kyOug0QfXY_9LdXEBC-241" style="edgeStyle=orthogonalEdgeStyle;rounded=0;orthogonalLoop=1;jettySize=auto;html=1;entryX=0.5;entryY=0;entryDx=0;entryDy=0;endArrow=classic;endFill=1;exitX=0.5;exitY=1;exitDx=0;exitDy=0;" edge="1" parent="j4kyOug0QfXY_9LdXEBC-1" source="j4kyOug0QfXY_9LdXEBC-222" target="j4kyOug0QfXY_9LdXEBC-238">
          <mxGeometry relative="1" as="geometry" />
        </mxCell>
        <mxCell id="j4kyOug0QfXY_9LdXEBC-222" value="&lt;br class=&quot;Apple-interchange-newline&quot;&gt;&lt;br style=&quot;text-align: left&quot;&gt;&lt;div class=&quot;layoutArea&quot; style=&quot;text-align: left&quot;&gt;&lt;div class=&quot;column&quot;&gt;&lt;p&gt;&lt;span style=&quot;font-family: &amp;#34;simsun&amp;#34;&quot;&gt;默认&lt;/span&gt;&lt;span style=&quot;font-family: &amp;#34;simsun&amp;#34;&quot;&gt;填充&lt;/span&gt;&lt;span style=&quot;font-family: &amp;#34;simsun&amp;#34;&quot;&gt;所&lt;/span&gt;&lt;span style=&quot;font-family: &amp;#34;simsun&amp;#34;&quot;&gt;选&lt;/span&gt;&lt;span style=&quot;font-family: &amp;#34;simsun&amp;#34;&quot;&gt;日&lt;/span&gt;&lt;span style=&quot;font-family: &amp;#34;simsun&amp;#34;&quot;&gt;期&lt;br&gt;&lt;/span&gt;&lt;span style=&quot;font-family: &amp;#34;simsun&amp;#34;&quot;&gt;当日&lt;/span&gt;&lt;span style=&quot;font-family: &amp;#34;simsun&amp;#34;&quot;&gt;的 20&lt;/span&gt;&lt;span style=&quot;font-family: &amp;#34;simsun&amp;#34;&quot;&gt;:&lt;/span&gt;&lt;span style=&quot;font-family: &amp;#34;simsun&amp;#34;&quot;&gt;00&lt;/span&gt;&lt;span style=&quot;font-family: &amp;#34;simsun&amp;#34;&quot;&gt;:&lt;/span&gt;&lt;span style=&quot;font-family: &amp;#34;simsun&amp;#34;&quot;&gt;00&lt;br&gt;&lt;/span&gt;&lt;/p&gt;&lt;br&gt;&lt;/div&gt;&lt;br&gt;&lt;/div&gt;" style="rounded=1;whiteSpace=wrap;html=1;" vertex="1" parent="j4kyOug0QfXY_9LdXEBC-1">
          <mxGeometry x="40" y="2290" width="120" height="40" as="geometry" />
        </mxCell>
        <mxCell id="j4kyOug0QfXY_9LdXEBC-228" value="" style="edgeStyle=orthogonalEdgeStyle;rounded=0;orthogonalLoop=1;jettySize=auto;html=1;endArrow=classic;endFill=1;" edge="1" parent="j4kyOug0QfXY_9LdXEBC-1" source="j4kyOug0QfXY_9LdXEBC-224" target="j4kyOug0QfXY_9LdXEBC-225">
          <mxGeometry relative="1" as="geometry" />
        </mxCell>
        <mxCell id="j4kyOug0QfXY_9LdXEBC-224" value="自动填充拼拼价" style="rounded=1;whiteSpace=wrap;html=1;" vertex="1" parent="j4kyOug0QfXY_9LdXEBC-1">
          <mxGeometry x="348" y="2130" width="120" height="40" as="geometry" />
        </mxCell>
        <mxCell id="j4kyOug0QfXY_9LdXEBC-229" value="" style="edgeStyle=orthogonalEdgeStyle;rounded=0;orthogonalLoop=1;jettySize=auto;html=1;endArrow=classic;endFill=1;" edge="1" parent="j4kyOug0QfXY_9LdXEBC-1" source="j4kyOug0QfXY_9LdXEBC-225" target="j4kyOug0QfXY_9LdXEBC-226">
          <mxGeometry relative="1" as="geometry" />
        </mxCell>
        <mxCell id="j4kyOug0QfXY_9LdXEBC-225" value="&lt;br class=&quot;Apple-interchange-newline&quot;&gt;&lt;br style=&quot;text-align: left&quot;&gt;&lt;div class=&quot;layoutArea&quot; style=&quot;text-align: left&quot;&gt;&lt;div class=&quot;column&quot;&gt;&lt;p&gt;&lt;span style=&quot;font-family: &amp;#34;simsun&amp;#34;&quot;&gt;默认&lt;/span&gt;&lt;span style=&quot;font-family: &amp;#34;simsun&amp;#34;&quot;&gt;填充&lt;/span&gt;&lt;span style=&quot;font-family: &amp;#34;simsun&amp;#34;&quot;&gt;所&lt;/span&gt;&lt;span style=&quot;font-family: &amp;#34;simsun&amp;#34;&quot;&gt;选&lt;/span&gt;&lt;span style=&quot;font-family: &amp;#34;simsun&amp;#34;&quot;&gt;日&lt;/span&gt;&lt;span style=&quot;font-family: &amp;#34;simsun&amp;#34;&quot;&gt;期&lt;br&gt;前&lt;/span&gt;&lt;span style=&quot;font-family: &amp;#34;simsun&amp;#34;&quot;&gt;一日&lt;/span&gt;&lt;span style=&quot;font-family: &amp;#34;simsun&amp;#34;&quot;&gt;的 22&lt;/span&gt;&lt;span style=&quot;font-family: &amp;#34;simsun&amp;#34;&quot;&gt;:&lt;/span&gt;&lt;span style=&quot;font-family: &amp;#34;simsun&amp;#34;&quot;&gt;00&lt;/span&gt;&lt;span style=&quot;font-family: &amp;#34;simsun&amp;#34;&quot;&gt;:&lt;/span&gt;&lt;span style=&quot;font-family: &amp;#34;simsun&amp;#34;&quot;&gt;00&lt;br&gt;&lt;/span&gt;&lt;/p&gt;&lt;br&gt;&lt;/div&gt;&lt;br&gt;&lt;/div&gt;" style="rounded=1;whiteSpace=wrap;html=1;" vertex="1" parent="j4kyOug0QfXY_9LdXEBC-1">
          <mxGeometry x="348" y="2210" width="120" height="40" as="geometry" />
        </mxCell>
        <mxCell id="j4kyOug0QfXY_9LdXEBC-244" style="edgeStyle=orthogonalEdgeStyle;rounded=0;orthogonalLoop=1;jettySize=auto;html=1;entryX=0.5;entryY=0;entryDx=0;entryDy=0;endArrow=classic;endFill=1;exitX=0.5;exitY=1;exitDx=0;exitDy=0;" edge="1" parent="j4kyOug0QfXY_9LdXEBC-1" source="j4kyOug0QfXY_9LdXEBC-226" target="j4kyOug0QfXY_9LdXEBC-238">
          <mxGeometry relative="1" as="geometry" />
        </mxCell>
        <mxCell id="j4kyOug0QfXY_9LdXEBC-226" value="&lt;br class=&quot;Apple-interchange-newline&quot;&gt;&lt;br style=&quot;text-align: left&quot;&gt;&lt;div class=&quot;layoutArea&quot; style=&quot;text-align: left&quot;&gt;&lt;div class=&quot;column&quot;&gt;&lt;p&gt;&lt;span style=&quot;font-family: &amp;#34;simsun&amp;#34;&quot;&gt;默认&lt;/span&gt;&lt;span style=&quot;font-family: &amp;#34;simsun&amp;#34;&quot;&gt;填充&lt;/span&gt;&lt;span style=&quot;font-family: &amp;#34;simsun&amp;#34;&quot;&gt;所&lt;/span&gt;&lt;span style=&quot;font-family: &amp;#34;simsun&amp;#34;&quot;&gt;选&lt;/span&gt;&lt;span style=&quot;font-family: &amp;#34;simsun&amp;#34;&quot;&gt;日&lt;/span&gt;&lt;span style=&quot;font-family: &amp;#34;simsun&amp;#34;&quot;&gt;期&lt;br&gt;&lt;/span&gt;&lt;span style=&quot;font-family: &amp;#34;simsun&amp;#34;&quot;&gt;当日&lt;/span&gt;&lt;span style=&quot;font-family: &amp;#34;simsun&amp;#34;&quot;&gt;的 21&lt;/span&gt;&lt;span style=&quot;font-family: &amp;#34;simsun&amp;#34;&quot;&gt;:&lt;/span&gt;&lt;span style=&quot;font-family: &amp;#34;simsun&amp;#34;&quot;&gt;59&lt;/span&gt;&lt;span style=&quot;font-family: &amp;#34;simsun&amp;#34;&quot;&gt;:&lt;/span&gt;&lt;span style=&quot;font-family: &amp;#34;simsun&amp;#34;&quot;&gt;59&lt;br&gt;&lt;/span&gt;&lt;/p&gt;&lt;br&gt;&lt;/div&gt;&lt;br&gt;&lt;/div&gt;" style="rounded=1;whiteSpace=wrap;html=1;" vertex="1" parent="j4kyOug0QfXY_9LdXEBC-1">
          <mxGeometry x="348" y="2290" width="120" height="40" as="geometry" />
        </mxCell>
        <mxCell id="j4kyOug0QfXY_9LdXEBC-231" value="自动填充实时拼拼价" style="rounded=1;whiteSpace=wrap;html=1;" vertex="1" parent="j4kyOug0QfXY_9LdXEBC-1">
          <mxGeometry x="195" y="2130" width="120" height="40" as="geometry" />
        </mxCell>
        <mxCell id="j4kyOug0QfXY_9LdXEBC-233" value="&lt;br class=&quot;Apple-interchange-newline&quot;&gt;&lt;br style=&quot;text-align: left&quot;&gt;&lt;div class=&quot;layoutArea&quot; style=&quot;text-align: left&quot;&gt;&lt;div class=&quot;column&quot;&gt;&lt;p&gt;&lt;span style=&quot;font-family: &amp;#34;simsun&amp;#34;&quot;&gt;默认&lt;/span&gt;&lt;span style=&quot;font-family: &amp;#34;simsun&amp;#34;&quot;&gt;填充&lt;/span&gt;&lt;span style=&quot;font-family: &amp;#34;simsun&amp;#34;&quot;&gt;所&lt;/span&gt;&lt;span style=&quot;font-family: &amp;#34;simsun&amp;#34;&quot;&gt;选&lt;/span&gt;&lt;span style=&quot;font-family: &amp;#34;simsun&amp;#34;&quot;&gt;日&lt;/span&gt;&lt;span style=&quot;font-family: &amp;#34;simsun&amp;#34;&quot;&gt;期&lt;br&gt;前&lt;/span&gt;&lt;span style=&quot;font-family: &amp;#34;simsun&amp;#34;&quot;&gt;一日&lt;/span&gt;&lt;span style=&quot;font-family: &amp;#34;simsun&amp;#34;&quot;&gt;的 22&lt;/span&gt;&lt;span style=&quot;font-family: &amp;#34;simsun&amp;#34;&quot;&gt;:&lt;/span&gt;&lt;span style=&quot;font-family: &amp;#34;simsun&amp;#34;&quot;&gt;00&lt;/span&gt;&lt;span style=&quot;font-family: &amp;#34;simsun&amp;#34;&quot;&gt;:&lt;/span&gt;&lt;span style=&quot;font-family: &amp;#34;simsun&amp;#34;&quot;&gt;00&lt;br&gt;&lt;/span&gt;&lt;/p&gt;&lt;br&gt;&lt;/div&gt;&lt;br&gt;&lt;/div&gt;" style="rounded=1;whiteSpace=wrap;html=1;" vertex="1" parent="j4kyOug0QfXY_9LdXEBC-1">
          <mxGeometry x="195" y="2210" width="120" height="40" as="geometry" />
        </mxCell>
        <mxCell id="j4kyOug0QfXY_9LdXEBC-230" value="" style="edgeStyle=orthogonalEdgeStyle;rounded=0;orthogonalLoop=1;jettySize=auto;html=1;endArrow=classic;endFill=1;" edge="1" parent="j4kyOug0QfXY_9LdXEBC-1" source="j4kyOug0QfXY_9LdXEBC-231" target="j4kyOug0QfXY_9LdXEBC-233">
          <mxGeometry relative="1" as="geometry" />
        </mxCell>
        <mxCell id="j4kyOug0QfXY_9LdXEBC-242" style="edgeStyle=orthogonalEdgeStyle;rounded=0;orthogonalLoop=1;jettySize=auto;html=1;entryX=0.5;entryY=0;entryDx=0;entryDy=0;endArrow=classic;endFill=1;" edge="1" parent="j4kyOug0QfXY_9LdXEBC-1" source="j4kyOug0QfXY_9LdXEBC-234" target="j4kyOug0QfXY_9LdXEBC-238">
          <mxGeometry relative="1" as="geometry" />
        </mxCell>
        <mxCell id="j4kyOug0QfXY_9LdXEBC-234" value="&lt;br class=&quot;Apple-interchange-newline&quot;&gt;&lt;br style=&quot;text-align: left&quot;&gt;&lt;div class=&quot;layoutArea&quot; style=&quot;text-align: left&quot;&gt;&lt;div class=&quot;column&quot;&gt;&lt;p&gt;&lt;span style=&quot;font-family: &amp;#34;simsun&amp;#34;&quot;&gt;默认&lt;/span&gt;&lt;span style=&quot;font-family: &amp;#34;simsun&amp;#34;&quot;&gt;填充&lt;/span&gt;&lt;span style=&quot;font-family: &amp;#34;simsun&amp;#34;&quot;&gt;所&lt;/span&gt;&lt;span style=&quot;font-family: &amp;#34;simsun&amp;#34;&quot;&gt;选&lt;/span&gt;&lt;span style=&quot;font-family: &amp;#34;simsun&amp;#34;&quot;&gt;日&lt;/span&gt;&lt;span style=&quot;font-family: &amp;#34;simsun&amp;#34;&quot;&gt;期&lt;br&gt;&lt;/span&gt;&lt;span style=&quot;font-family: &amp;#34;simsun&amp;#34;&quot;&gt;当日&lt;/span&gt;&lt;span style=&quot;font-family: &amp;#34;simsun&amp;#34;&quot;&gt;的 21&lt;/span&gt;&lt;span style=&quot;font-family: &amp;#34;simsun&amp;#34;&quot;&gt;:&lt;/span&gt;&lt;span style=&quot;font-family: &amp;#34;simsun&amp;#34;&quot;&gt;59&lt;/span&gt;&lt;span style=&quot;font-family: &amp;#34;simsun&amp;#34;&quot;&gt;:&lt;/span&gt;&lt;span style=&quot;font-family: &amp;#34;simsun&amp;#34;&quot;&gt;59&lt;br&gt;&lt;/span&gt;&lt;/p&gt;&lt;br&gt;&lt;/div&gt;&lt;br&gt;&lt;/div&gt;" style="rounded=1;whiteSpace=wrap;html=1;" vertex="1" parent="j4kyOug0QfXY_9LdXEBC-1">
          <mxGeometry x="195" y="2290" width="120" height="40" as="geometry" />
        </mxCell>
        <mxCell id="j4kyOug0QfXY_9LdXEBC-232" value="" style="edgeStyle=orthogonalEdgeStyle;rounded=0;orthogonalLoop=1;jettySize=auto;html=1;endArrow=classic;endFill=1;" edge="1" parent="j4kyOug0QfXY_9LdXEBC-1" source="j4kyOug0QfXY_9LdXEBC-233" target="j4kyOug0QfXY_9LdXEBC-234">
          <mxGeometry relative="1" as="geometry" />
        </mxCell>
        <mxCell id="j4kyOug0QfXY_9LdXEBC-236" style="edgeStyle=orthogonalEdgeStyle;rounded=0;orthogonalLoop=1;jettySize=auto;html=1;entryX=0.5;entryY=0;entryDx=0;entryDy=0;endArrow=classic;endFill=1;exitX=0.5;exitY=1;exitDx=0;exitDy=0;" edge="1" parent="j4kyOug0QfXY_9LdXEBC-1" source="j4kyOug0QfXY_9LdXEBC-208" target="j4kyOug0QfXY_9LdXEBC-231">
          <mxGeometry relative="1" as="geometry">
            <mxPoint x="398" y="2100" as="sourcePoint" />
            <mxPoint x="398" y="2140" as="targetPoint" />
          </mxGeometry>
        </mxCell>
        <mxCell id="j4kyOug0QfXY_9LdXEBC-262" style="edgeStyle=orthogonalEdgeStyle;rounded=0;orthogonalLoop=1;jettySize=auto;html=1;entryX=0.5;entryY=0;entryDx=0;entryDy=0;endArrow=classic;endFill=1;" edge="1" parent="j4kyOug0QfXY_9LdXEBC-1" source="j4kyOug0QfXY_9LdXEBC-237">
          <mxGeometry relative="1" as="geometry">
            <mxPoint x="255" y="2660" as="targetPoint" />
          </mxGeometry>
        </mxCell>
        <mxCell id="j4kyOug0QfXY_9LdXEBC-237" value="确认商品信息待提交审批" style="rounded=1;whiteSpace=wrap;html=1;" vertex="1" parent="j4kyOug0QfXY_9LdXEBC-1">
          <mxGeometry x="200" y="2576" width="110" height="40" as="geometry" />
        </mxCell>
        <mxCell id="j4kyOug0QfXY_9LdXEBC-239" style="edgeStyle=orthogonalEdgeStyle;rounded=0;orthogonalLoop=1;jettySize=auto;html=1;entryX=0.5;entryY=0;entryDx=0;entryDy=0;endArrow=classic;endFill=1;" edge="1" parent="j4kyOug0QfXY_9LdXEBC-1" source="j4kyOug0QfXY_9LdXEBC-238" target="j4kyOug0QfXY_9LdXEBC-237">
          <mxGeometry relative="1" as="geometry" />
        </mxCell>
        <mxCell id="j4kyOug0QfXY_9LdXEBC-240" value="否" style="edgeLabel;html=1;align=center;verticalAlign=middle;resizable=0;points=[];" vertex="1" connectable="0" parent="j4kyOug0QfXY_9LdXEBC-239">
          <mxGeometry x="-0.5143" y="2" relative="1" as="geometry">
            <mxPoint as="offset" />
          </mxGeometry>
        </mxCell>
        <mxCell id="j4kyOug0QfXY_9LdXEBC-238" value="是否刷新库存" style="rhombus;whiteSpace=wrap;html=1;" vertex="1" parent="j4kyOug0QfXY_9LdXEBC-1">
          <mxGeometry x="189" y="2380" width="132" height="90" as="geometry" />
        </mxCell>
        <mxCell id="j4kyOug0QfXY_9LdXEBC-249" style="edgeStyle=orthogonalEdgeStyle;rounded=0;orthogonalLoop=1;jettySize=auto;html=1;entryX=1;entryY=0.5;entryDx=0;entryDy=0;endArrow=classic;endFill=1;exitX=-0.033;exitY=0.476;exitDx=0;exitDy=0;exitPerimeter=0;" edge="1" parent="j4kyOug0QfXY_9LdXEBC-1" source="j4kyOug0QfXY_9LdXEBC-247" target="j4kyOug0QfXY_9LdXEBC-237">
          <mxGeometry relative="1" as="geometry" />
        </mxCell>
        <mxCell id="j4kyOug0QfXY_9LdXEBC-247" value="更新库存信息" style="rounded=1;whiteSpace=wrap;html=1;" vertex="1" parent="j4kyOug0QfXY_9LdXEBC-1">
          <mxGeometry x="360" y="2577" width="110" height="40" as="geometry" />
        </mxCell>
        <mxCell id="j4kyOug0QfXY_9LdXEBC-253" value="否" style="edgeStyle=orthogonalEdgeStyle;rounded=0;orthogonalLoop=1;jettySize=auto;html=1;entryX=0.5;entryY=0;entryDx=0;entryDy=0;endArrow=classic;endFill=1;" edge="1" parent="j4kyOug0QfXY_9LdXEBC-1" source="j4kyOug0QfXY_9LdXEBC-251" target="j4kyOug0QfXY_9LdXEBC-96">
          <mxGeometry relative="1" as="geometry" />
        </mxCell>
        <mxCell id="j4kyOug0QfXY_9LdXEBC-255" style="edgeStyle=orthogonalEdgeStyle;rounded=0;orthogonalLoop=1;jettySize=auto;html=1;entryX=0;entryY=0.5;entryDx=0;entryDy=0;endArrow=classic;endFill=1;exitX=0;exitY=0.5;exitDx=0;exitDy=0;" edge="1" parent="j4kyOug0QfXY_9LdXEBC-1" source="j4kyOug0QfXY_9LdXEBC-251" target="j4kyOug0QfXY_9LdXEBC-100">
          <mxGeometry relative="1" as="geometry" />
        </mxCell>
        <mxCell id="j4kyOug0QfXY_9LdXEBC-256" value="是" style="edgeLabel;html=1;align=center;verticalAlign=middle;resizable=0;points=[];" vertex="1" connectable="0" parent="j4kyOug0QfXY_9LdXEBC-255">
          <mxGeometry x="-0.3488" y="1" relative="1" as="geometry">
            <mxPoint as="offset" />
          </mxGeometry>
        </mxCell>
        <mxCell id="j4kyOug0QfXY_9LdXEBC-251" value="是否批量上传商品" style="rhombus;whiteSpace=wrap;html=1;" vertex="1" parent="j4kyOug0QfXY_9LdXEBC-1">
          <mxGeometry x="187" y="1070" width="100" height="70" as="geometry" />
        </mxCell>
        <mxCell id="j4kyOug0QfXY_9LdXEBC-357" value="是否为供应商自主提报" style="rhombus;whiteSpace=wrap;html=1;" vertex="1" parent="j4kyOug0QfXY_9LdXEBC-1">
          <mxGeometry x="189" y="2660" width="132" height="90" as="geometry" />
        </mxCell>
        <mxCell id="j4kyOug0QfXY_9LdXEBC-369" value="排期计划审核" style="rounded=0;whiteSpace=wrap;html=1;" vertex="1" parent="j4kyOug0QfXY_9LdXEBC-1">
          <mxGeometry y="3490" width="30" height="2260" as="geometry" />
        </mxCell>
        <mxCell id="j4kyOug0QfXY_9LdXEBC-377" style="edgeStyle=orthogonalEdgeStyle;rounded=0;orthogonalLoop=1;jettySize=auto;html=1;endArrow=classic;endFill=1;" edge="1" parent="j4kyOug0QfXY_9LdXEBC-1" source="j4kyOug0QfXY_9LdXEBC-373" target="j4kyOug0QfXY_9LdXEBC-376">
          <mxGeometry relative="1" as="geometry" />
        </mxCell>
        <mxCell id="j4kyOug0QfXY_9LdXEBC-373" value="运营根据条件筛选商品" style="rounded=1;whiteSpace=wrap;html=1;" vertex="1" parent="j4kyOug0QfXY_9LdXEBC-1">
          <mxGeometry x="125.13" y="3580" width="127.5" height="40" as="geometry" />
        </mxCell>
        <mxCell id="j4kyOug0QfXY_9LdXEBC-379" value="" style="edgeStyle=orthogonalEdgeStyle;rounded=0;orthogonalLoop=1;jettySize=auto;html=1;endArrow=classic;endFill=1;" edge="1" parent="j4kyOug0QfXY_9LdXEBC-1" source="j4kyOug0QfXY_9LdXEBC-376" target="j4kyOug0QfXY_9LdXEBC-378">
          <mxGeometry relative="1" as="geometry" />
        </mxCell>
        <mxCell id="j4kyOug0QfXY_9LdXEBC-376" value="选择需要审批的商品" style="rounded=1;whiteSpace=wrap;html=1;" vertex="1" parent="j4kyOug0QfXY_9LdXEBC-1">
          <mxGeometry x="130.13" y="3670" width="117.5" height="40" as="geometry" />
        </mxCell>
        <mxCell id="j4kyOug0QfXY_9LdXEBC-381" value="是" style="edgeStyle=orthogonalEdgeStyle;rounded=0;orthogonalLoop=1;jettySize=auto;html=1;entryX=0.5;entryY=0;entryDx=0;entryDy=0;endArrow=classic;endFill=1;" edge="1" parent="j4kyOug0QfXY_9LdXEBC-1" source="j4kyOug0QfXY_9LdXEBC-378" target="j4kyOug0QfXY_9LdXEBC-380">
          <mxGeometry relative="1" as="geometry" />
        </mxCell>
        <mxCell id="j4kyOug0QfXY_9LdXEBC-383" style="edgeStyle=orthogonalEdgeStyle;rounded=0;orthogonalLoop=1;jettySize=auto;html=1;entryX=0.5;entryY=0;entryDx=0;entryDy=0;endArrow=classic;endFill=1;" edge="1" parent="j4kyOug0QfXY_9LdXEBC-1" source="j4kyOug0QfXY_9LdXEBC-378" target="j4kyOug0QfXY_9LdXEBC-382">
          <mxGeometry relative="1" as="geometry" />
        </mxCell>
        <mxCell id="j4kyOug0QfXY_9LdXEBC-384" value="否" style="edgeLabel;html=1;align=center;verticalAlign=middle;resizable=0;points=[];" vertex="1" connectable="0" parent="j4kyOug0QfXY_9LdXEBC-383">
          <mxGeometry x="-0.4162" y="-1" relative="1" as="geometry">
            <mxPoint x="1" as="offset" />
          </mxGeometry>
        </mxCell>
        <mxCell id="j4kyOug0QfXY_9LdXEBC-378" value="是否通过排期初审" style="rhombus;whiteSpace=wrap;html=1;" vertex="1" parent="j4kyOug0QfXY_9LdXEBC-1">
          <mxGeometry x="136.38" y="3760" width="105" height="70" as="geometry" />
        </mxCell>
        <mxCell id="j4kyOug0QfXY_9LdXEBC-386" style="edgeStyle=orthogonalEdgeStyle;rounded=0;orthogonalLoop=1;jettySize=auto;html=1;entryX=0.5;entryY=0;entryDx=0;entryDy=0;endArrow=classic;endFill=1;" edge="1" parent="j4kyOug0QfXY_9LdXEBC-1" source="j4kyOug0QfXY_9LdXEBC-380">
          <mxGeometry relative="1" as="geometry">
            <mxPoint x="188.3800000000001" y="3980" as="targetPoint" />
          </mxGeometry>
        </mxCell>
        <mxCell id="j4kyOug0QfXY_9LdXEBC-380" value="&lt;span&gt;排期初审完成&lt;/span&gt;" style="rounded=1;whiteSpace=wrap;html=1;" vertex="1" parent="j4kyOug0QfXY_9LdXEBC-1">
          <mxGeometry x="132.88" y="3880" width="111" height="40" as="geometry" />
        </mxCell>
        <mxCell id="j4kyOug0QfXY_9LdXEBC-388" style="edgeStyle=orthogonalEdgeStyle;rounded=0;orthogonalLoop=1;jettySize=auto;html=1;entryX=0.5;entryY=0;entryDx=0;entryDy=0;endArrow=classic;endFill=1;" edge="1" parent="j4kyOug0QfXY_9LdXEBC-1" source="j4kyOug0QfXY_9LdXEBC-382" target="j4kyOug0QfXY_9LdXEBC-387">
          <mxGeometry relative="1" as="geometry" />
        </mxCell>
        <mxCell id="j4kyOug0QfXY_9LdXEBC-382" value="&lt;span&gt;排期初审驳回&lt;/span&gt;" style="rounded=1;whiteSpace=wrap;html=1;" vertex="1" parent="j4kyOug0QfXY_9LdXEBC-1">
          <mxGeometry x="273.88" y="3880" width="111" height="40" as="geometry" />
        </mxCell>
        <mxCell id="j4kyOug0QfXY_9LdXEBC-387" value="&lt;span&gt;商品返回待提交状态&lt;/span&gt;" style="rounded=1;whiteSpace=wrap;html=1;" vertex="1" parent="j4kyOug0QfXY_9LdXEBC-1">
          <mxGeometry x="273.88" y="3980" width="111" height="40" as="geometry" />
        </mxCell>
        <mxCell id="j4kyOug0QfXY_9LdXEBC-409" value="是" style="edgeStyle=orthogonalEdgeStyle;rounded=0;orthogonalLoop=1;jettySize=auto;html=1;entryX=0.5;entryY=0;entryDx=0;entryDy=0;endArrow=classic;endFill=1;" edge="1" parent="j4kyOug0QfXY_9LdXEBC-1" source="j4kyOug0QfXY_9LdXEBC-406" target="j4kyOug0QfXY_9LdXEBC-407">
          <mxGeometry relative="1" as="geometry" />
        </mxCell>
        <mxCell id="j4kyOug0QfXY_9LdXEBC-410" style="edgeStyle=orthogonalEdgeStyle;rounded=0;orthogonalLoop=1;jettySize=auto;html=1;entryX=0.5;entryY=0;entryDx=0;entryDy=0;endArrow=classic;endFill=1;" edge="1" parent="j4kyOug0QfXY_9LdXEBC-1" source="j4kyOug0QfXY_9LdXEBC-406" target="j4kyOug0QfXY_9LdXEBC-408">
          <mxGeometry relative="1" as="geometry">
            <Array as="points">
              <mxPoint x="240" y="4050" />
              <mxPoint x="329" y="4050" />
            </Array>
          </mxGeometry>
        </mxCell>
        <mxCell id="j4kyOug0QfXY_9LdXEBC-411" value="否" style="edgeLabel;html=1;align=center;verticalAlign=middle;resizable=0;points=[];" vertex="1" connectable="0" parent="j4kyOug0QfXY_9LdXEBC-410">
          <mxGeometry x="-0.2758" y="1" relative="1" as="geometry">
            <mxPoint as="offset" />
          </mxGeometry>
        </mxCell>
        <mxCell id="j4kyOug0QfXY_9LdXEBC-406" value="采购价是否发生变化" style="rhombus;whiteSpace=wrap;html=1;" vertex="1" parent="j4kyOug0QfXY_9LdXEBC-1">
          <mxGeometry x="132.88" y="3980" width="109" height="60" as="geometry" />
        </mxCell>
        <mxCell id="j4kyOug0QfXY_9LdXEBC-407" value="&lt;span&gt;进行供应商审核&lt;/span&gt;" style="rounded=1;whiteSpace=wrap;html=1;" vertex="1" parent="j4kyOug0QfXY_9LdXEBC-1">
          <mxGeometry x="131.88" y="4090" width="111" height="40" as="geometry" />
        </mxCell>
        <mxCell id="j4kyOug0QfXY_9LdXEBC-408" value="&lt;span&gt;排期审核完成&lt;/span&gt;" style="rounded=1;whiteSpace=wrap;html=1;" vertex="1" parent="j4kyOug0QfXY_9LdXEBC-1">
          <mxGeometry x="273.88" y="4090" width="111" height="40" as="geometry" />
        </mxCell>
        <mxCell id="j4kyOug0QfXY_9LdXEBC-475" style="edgeStyle=orthogonalEdgeStyle;rounded=0;orthogonalLoop=1;jettySize=auto;html=1;entryX=0.5;entryY=0;entryDx=0;entryDy=0;endArrow=classic;endFill=1;" edge="1" parent="j4kyOug0QfXY_9LdXEBC-1" source="j4kyOug0QfXY_9LdXEBC-457" target="j4kyOug0QfXY_9LdXEBC-474">
          <mxGeometry relative="1" as="geometry" />
        </mxCell>
        <mxCell id="j4kyOug0QfXY_9LdXEBC-457" value="向排期发起人同步失败原因（邮件）" style="rounded=1;whiteSpace=wrap;html=1;" vertex="1" parent="j4kyOug0QfXY_9LdXEBC-1">
          <mxGeometry x="66" y="4851" width="111" height="40" as="geometry" />
        </mxCell>
        <mxCell id="j4kyOug0QfXY_9LdXEBC-461" value="&lt;span&gt;排期初审驳回&lt;/span&gt;" style="rounded=1;whiteSpace=wrap;html=1;" vertex="1" parent="j4kyOug0QfXY_9LdXEBC-1">
          <mxGeometry x="340" y="5090" width="111" height="40" as="geometry" />
        </mxCell>
        <mxCell id="j4kyOug0QfXY_9LdXEBC-462" value="&lt;span&gt;商品返回待提交状态&lt;/span&gt;" style="rounded=1;whiteSpace=wrap;html=1;" vertex="1" parent="j4kyOug0QfXY_9LdXEBC-1">
          <mxGeometry x="340" y="5160" width="111" height="40" as="geometry" />
        </mxCell>
        <mxCell id="j4kyOug0QfXY_9LdXEBC-460" style="edgeStyle=orthogonalEdgeStyle;rounded=0;orthogonalLoop=1;jettySize=auto;html=1;entryX=0.5;entryY=0;entryDx=0;entryDy=0;endArrow=classic;endFill=1;" edge="1" parent="j4kyOug0QfXY_9LdXEBC-1" source="j4kyOug0QfXY_9LdXEBC-461" target="j4kyOug0QfXY_9LdXEBC-462">
          <mxGeometry relative="1" as="geometry" />
        </mxCell>
        <mxCell id="j4kyOug0QfXY_9LdXEBC-476" style="edgeStyle=orthogonalEdgeStyle;rounded=0;orthogonalLoop=1;jettySize=auto;html=1;entryX=0;entryY=0.5;entryDx=0;entryDy=0;endArrow=classic;endFill=1;exitX=0;exitY=0.5;exitDx=0;exitDy=0;" edge="1" parent="j4kyOug0QfXY_9LdXEBC-1" source="j4kyOug0QfXY_9LdXEBC-474" target="j4kyOug0QfXY_9LdXEBC-407">
          <mxGeometry relative="1" as="geometry">
            <Array as="points">
              <mxPoint x="66" y="4990" />
              <mxPoint x="50" y="4990" />
              <mxPoint x="50" y="4110" />
            </Array>
          </mxGeometry>
        </mxCell>
        <mxCell id="j4kyOug0QfXY_9LdXEBC-474" value="&lt;span&gt;向排期发起人解决错误进行重试&lt;/span&gt;" style="rounded=1;whiteSpace=wrap;html=1;" vertex="1" parent="j4kyOug0QfXY_9LdXEBC-1">
          <mxGeometry x="66" y="4960" width="111" height="50" as="geometry" />
        </mxCell>
        <mxCell id="j4kyOug0QfXY_9LdXEBC-477" style="edgeStyle=orthogonalEdgeStyle;rounded=0;orthogonalLoop=1;jettySize=auto;html=1;endArrow=none;endFill=0;exitX=1;exitY=1;exitDx=0;exitDy=0;" edge="1" parent="j4kyOug0QfXY_9LdXEBC-1">
          <mxGeometry relative="1" as="geometry">
            <mxPoint x="30" y="5750" as="sourcePoint" />
            <mxPoint x="2501" y="5750" as="targetPoint" />
            <Array as="points">
              <mxPoint x="660" y="5750" />
              <mxPoint x="660" y="5750" />
            </Array>
          </mxGeometry>
        </mxCell>
        <mxCell id="j4kyOug0QfXY_9LdXEBC-497" value="商品计划" style="rounded=0;whiteSpace=wrap;html=1;" vertex="1" parent="j4kyOug0QfXY_9LdXEBC-1">
          <mxGeometry y="5750" width="30" height="620" as="geometry" />
        </mxCell>
        <mxCell id="j4kyOug0QfXY_9LdXEBC-501" value="用户选择城计划" style="rounded=1;whiteSpace=wrap;html=1;" vertex="1" parent="j4kyOug0QfXY_9LdXEBC-1">
          <mxGeometry x="180" y="5780" width="120" height="40" as="geometry" />
        </mxCell>
        <mxCell id="j4kyOug0QfXY_9LdXEBC-505" style="edgeStyle=orthogonalEdgeStyle;rounded=0;orthogonalLoop=1;jettySize=auto;html=1;entryX=0.5;entryY=0;entryDx=0;entryDy=0;endArrow=classic;endFill=1;" edge="1" parent="j4kyOug0QfXY_9LdXEBC-1" source="j4kyOug0QfXY_9LdXEBC-502" target="j4kyOug0QfXY_9LdXEBC-504">
          <mxGeometry relative="1" as="geometry" />
        </mxCell>
        <mxCell id="j4kyOug0QfXY_9LdXEBC-502" value="用户选择日期" style="rounded=1;whiteSpace=wrap;html=1;" vertex="1" parent="j4kyOug0QfXY_9LdXEBC-1">
          <mxGeometry x="180" y="5850" width="120" height="40" as="geometry" />
        </mxCell>
        <mxCell id="j4kyOug0QfXY_9LdXEBC-503" value="" style="edgeStyle=orthogonalEdgeStyle;rounded=0;orthogonalLoop=1;jettySize=auto;html=1;" edge="1" parent="j4kyOug0QfXY_9LdXEBC-1" source="j4kyOug0QfXY_9LdXEBC-501" target="j4kyOug0QfXY_9LdXEBC-502">
          <mxGeometry relative="1" as="geometry" />
        </mxCell>
        <mxCell id="j4kyOug0QfXY_9LdXEBC-504" value="展示排期初审与供应商审核商品" style="rounded=1;whiteSpace=wrap;html=1;" vertex="1" parent="j4kyOug0QfXY_9LdXEBC-1">
          <mxGeometry x="180" y="5936" width="120" height="40" as="geometry" />
        </mxCell>
        <mxCell id="j4kyOug0QfXY_9LdXEBC-507" value="同步修改限购信息" style="rounded=1;whiteSpace=wrap;html=1;" vertex="1" parent="j4kyOug0QfXY_9LdXEBC-1">
          <mxGeometry x="189" y="6235" width="120" height="40" as="geometry" />
        </mxCell>
        <mxCell id="j4kyOug0QfXY_9LdXEBC-508" value="排期审核完成商品计划性数据变更" style="text;html=1;strokeColor=none;fillColor=none;align=center;verticalAlign=middle;whiteSpace=wrap;rounded=0;" vertex="1" parent="j4kyOug0QfXY_9LdXEBC-1">
          <mxGeometry x="160" y="5980" width="190" height="30" as="geometry" />
        </mxCell>
        <mxCell id="j4kyOug0QfXY_9LdXEBC-509" value="同步修改团期库存" style="rounded=1;whiteSpace=wrap;html=1;" vertex="1" parent="j4kyOug0QfXY_9LdXEBC-1">
          <mxGeometry x="189" y="6300" width="120" height="40" as="geometry" />
        </mxCell>
        <mxCell id="j4kyOug0QfXY_9LdXEBC-510" value="&lt;span style=&quot;font-size: 14px&quot;&gt;未推送团活动&lt;br&gt;&lt;br&gt;已推送团活动&lt;br&gt;&lt;br&gt;团活动删除&lt;/span&gt;" style="rounded=1;whiteSpace=wrap;html=1;" vertex="1" parent="j4kyOug0QfXY_9LdXEBC-1">
          <mxGeometry x="184" y="6060" width="120" height="160" as="geometry" />
        </mxCell>
        <mxCell id="j4kyOug0QfXY_9LdXEBC-652" value="&lt;span style=&quot;color: rgb(0 , 0 , 0) ; font-family: &amp;#34;helvetica&amp;#34; ; font-size: 12px ; font-style: normal ; letter-spacing: normal ; text-align: center ; text-indent: 0px ; text-transform: none ; word-spacing: 0px ; background-color: rgb(248 , 249 , 250) ; display: inline ; float: none&quot;&gt;同步团活动状态&lt;/span&gt;" style="text;whiteSpace=wrap;html=1;" vertex="1" parent="j4kyOug0QfXY_9LdXEBC-1">
          <mxGeometry x="201.5" y="6070" width="95" height="30" as="geometry" />
        </mxCell>
        <mxCell id="j4kyOug0QfXY_9LdXEBC-659" value="排期执行" style="rounded=0;whiteSpace=wrap;html=1;" vertex="1" parent="j4kyOug0QfXY_9LdXEBC-1">
          <mxGeometry y="6370" width="30" height="2500" as="geometry" />
        </mxCell>
        <mxCell id="j4kyOug0QfXY_9LdXEBC-664" style="edgeStyle=orthogonalEdgeStyle;rounded=0;orthogonalLoop=1;jettySize=auto;html=1;entryX=0.5;entryY=0;entryDx=0;entryDy=0;endArrow=classic;endFill=1;" edge="1" parent="j4kyOug0QfXY_9LdXEBC-1" source="j4kyOug0QfXY_9LdXEBC-660" target="j4kyOug0QfXY_9LdXEBC-661">
          <mxGeometry relative="1" as="geometry" />
        </mxCell>
        <mxCell id="j4kyOug0QfXY_9LdXEBC-660" value="排期审核完毕" style="rounded=1;whiteSpace=wrap;html=1;" vertex="1" parent="j4kyOug0QfXY_9LdXEBC-1">
          <mxGeometry x="195" y="6410" width="120" height="40" as="geometry" />
        </mxCell>
        <mxCell id="j4kyOug0QfXY_9LdXEBC-661" value="排期商品同步团活动" style="rounded=1;whiteSpace=wrap;html=1;" vertex="1" parent="j4kyOug0QfXY_9LdXEBC-1">
          <mxGeometry x="195" y="6520" width="120" height="40" as="geometry" />
        </mxCell>
        <mxCell id="j4kyOug0QfXY_9LdXEBC-667" value="&lt;span style=&quot;font-family: &amp;#34;helvetica&amp;#34;&quot;&gt;同步团活动状态变为已同步团活动&lt;/span&gt;" style="rounded=1;whiteSpace=wrap;html=1;" vertex="1" parent="j4kyOug0QfXY_9LdXEBC-1">
          <mxGeometry x="195" y="6620" width="120" height="40" as="geometry" />
        </mxCell>
        <mxCell id="j4kyOug0QfXY_9LdXEBC-675" style="edgeStyle=orthogonalEdgeStyle;rounded=0;orthogonalLoop=1;jettySize=auto;html=1;entryX=0.5;entryY=0;entryDx=0;entryDy=0;endArrow=classic;endFill=1;" edge="1" parent="j4kyOug0QfXY_9LdXEBC-1" source="j4kyOug0QfXY_9LdXEBC-671" target="j4kyOug0QfXY_9LdXEBC-672">
          <mxGeometry relative="1" as="geometry" />
        </mxCell>
        <mxCell id="j4kyOug0QfXY_9LdXEBC-671" value="&lt;span style=&quot;font-family: &amp;#34;helvetica&amp;#34;&quot;&gt;向排期创建人发送邮件&lt;/span&gt;" style="rounded=1;whiteSpace=wrap;html=1;" vertex="1" parent="j4kyOug0QfXY_9LdXEBC-1">
          <mxGeometry x="195" y="6700" width="120" height="40" as="geometry" />
        </mxCell>
        <mxCell id="j4kyOug0QfXY_9LdXEBC-672" value="&lt;span style=&quot;font-family: &amp;#34;helvetica&amp;#34;&quot;&gt;同步团活动状态变为同步团活动失败&lt;/span&gt;" style="rounded=1;whiteSpace=wrap;html=1;" vertex="1" parent="j4kyOug0QfXY_9LdXEBC-1">
          <mxGeometry x="195" y="6780" width="120" height="40" as="geometry" />
        </mxCell>
        <mxCell id="j4kyOug0QfXY_9LdXEBC-676" value="21：30商品排期关闭" style="text;html=1;strokeColor=none;fillColor=none;align=center;verticalAlign=middle;whiteSpace=wrap;rounded=0;" vertex="1" parent="j4kyOug0QfXY_9LdXEBC-1">
          <mxGeometry x="195" y="6860" width="120" height="30" as="geometry" />
        </mxCell>
        <mxCell id="j4kyOug0QfXY_9LdXEBC-677" value="排期审核完毕" style="text;html=1;strokeColor=none;fillColor=none;align=center;verticalAlign=middle;whiteSpace=wrap;rounded=0;" vertex="1" parent="j4kyOug0QfXY_9LdXEBC-1">
          <mxGeometry x="195" y="6370" width="120" height="30" as="geometry" />
        </mxCell>
        <mxCell id="j4kyOug0QfXY_9LdXEBC-680" style="edgeStyle=orthogonalEdgeStyle;rounded=0;orthogonalLoop=1;jettySize=auto;html=1;entryX=0.5;entryY=0;entryDx=0;entryDy=0;endArrow=classic;endFill=1;" edge="1" parent="j4kyOug0QfXY_9LdXEBC-1" source="j4kyOug0QfXY_9LdXEBC-678" target="j4kyOug0QfXY_9LdXEBC-679">
          <mxGeometry relative="1" as="geometry" />
        </mxCell>
        <mxCell id="j4kyOug0QfXY_9LdXEBC-678" value="21：30商品排期关闭" style="rounded=1;whiteSpace=wrap;html=1;" vertex="1" parent="j4kyOug0QfXY_9LdXEBC-1">
          <mxGeometry x="200" y="6970" width="120" height="40" as="geometry" />
        </mxCell>
        <mxCell id="j4kyOug0QfXY_9LdXEBC-684" style="edgeStyle=orthogonalEdgeStyle;rounded=0;orthogonalLoop=1;jettySize=auto;html=1;entryX=0.5;entryY=0;entryDx=0;entryDy=0;endArrow=classic;endFill=1;" edge="1" parent="j4kyOug0QfXY_9LdXEBC-1" source="j4kyOug0QfXY_9LdXEBC-679" target="j4kyOug0QfXY_9LdXEBC-683">
          <mxGeometry relative="1" as="geometry" />
        </mxCell>
        <mxCell id="j4kyOug0QfXY_9LdXEBC-679" value="排期初审自动关闭" style="rounded=1;whiteSpace=wrap;html=1;" vertex="1" parent="j4kyOug0QfXY_9LdXEBC-1">
          <mxGeometry x="201" y="7040" width="120" height="40" as="geometry" />
        </mxCell>
        <mxCell id="j4kyOug0QfXY_9LdXEBC-682" style="edgeStyle=orthogonalEdgeStyle;rounded=0;orthogonalLoop=1;jettySize=auto;html=1;entryX=0.5;entryY=0;entryDx=0;entryDy=0;endArrow=classic;endFill=1;" edge="1" parent="j4kyOug0QfXY_9LdXEBC-1" source="j4kyOug0QfXY_9LdXEBC-681" target="j4kyOug0QfXY_9LdXEBC-678">
          <mxGeometry relative="1" as="geometry" />
        </mxCell>
        <mxCell id="j4kyOug0QfXY_9LdXEBC-681" value="20：00向审核未完成人发送催审邮件" style="rounded=1;whiteSpace=wrap;html=1;" vertex="1" parent="j4kyOug0QfXY_9LdXEBC-1">
          <mxGeometry x="200" y="6900" width="120" height="40" as="geometry" />
        </mxCell>
        <mxCell id="j4kyOug0QfXY_9LdXEBC-683" value="供应商审批自动驳回" style="rounded=1;whiteSpace=wrap;html=1;" vertex="1" parent="j4kyOug0QfXY_9LdXEBC-1">
          <mxGeometry x="201" y="7160" width="120" height="40" as="geometry" />
        </mxCell>
        <mxCell id="j4kyOug0QfXY_9LdXEBC-689" value="排期审核状态变为排期关闭" style="rounded=1;whiteSpace=wrap;html=1;" vertex="1" parent="j4kyOug0QfXY_9LdXEBC-1">
          <mxGeometry x="200" y="7271" width="120" height="40" as="geometry" />
        </mxCell>
        <mxCell id="j4kyOug0QfXY_9LdXEBC-704" value="22：00商品排期执行" style="text;html=1;strokeColor=none;fillColor=none;align=center;verticalAlign=middle;whiteSpace=wrap;rounded=0;" vertex="1" parent="j4kyOug0QfXY_9LdXEBC-1">
          <mxGeometry x="177" y="7620" width="120" height="30" as="geometry" />
        </mxCell>
        <mxCell id="j4kyOug0QfXY_9LdXEBC-705" value="拼拼价生效" style="rounded=1;whiteSpace=wrap;html=1;" vertex="1" parent="j4kyOug0QfXY_9LdXEBC-1">
          <mxGeometry x="184" y="7680" width="120" height="40" as="geometry" />
        </mxCell>
        <mxCell id="j4kyOug0QfXY_9LdXEBC-706" value="团期库存生效" style="rounded=1;whiteSpace=wrap;html=1;" vertex="1" parent="j4kyOug0QfXY_9LdXEBC-1">
          <mxGeometry x="184" y="7940" width="120" height="40" as="geometry" />
        </mxCell>
        <mxCell id="j4kyOug0QfXY_9LdXEBC-707" value="采购价生效" style="rounded=1;whiteSpace=wrap;html=1;" vertex="1" parent="j4kyOug0QfXY_9LdXEBC-1">
          <mxGeometry x="195" y="8571" width="120" height="40" as="geometry" />
        </mxCell>
        <mxCell id="j4kyOug0QfXY_9LdXEBC-712" value="发送拼拼价生效失败邮件" style="rounded=1;whiteSpace=wrap;html=1;" vertex="1" parent="j4kyOug0QfXY_9LdXEBC-1">
          <mxGeometry x="184" y="7770" width="120" height="40" as="geometry" />
        </mxCell>
        <mxCell id="j4kyOug0QfXY_9LdXEBC-718" style="edgeStyle=orthogonalEdgeStyle;rounded=0;orthogonalLoop=1;jettySize=auto;html=1;entryX=0.5;entryY=0;entryDx=0;entryDy=0;endArrow=classic;endFill=1;" edge="1" parent="j4kyOug0QfXY_9LdXEBC-1" source="j4kyOug0QfXY_9LdXEBC-715" target="j4kyOug0QfXY_9LdXEBC-706">
          <mxGeometry relative="1" as="geometry" />
        </mxCell>
        <mxCell id="j4kyOug0QfXY_9LdXEBC-715" value="拼拼价生效成功" style="rounded=1;whiteSpace=wrap;html=1;" vertex="1" parent="j4kyOug0QfXY_9LdXEBC-1">
          <mxGeometry x="184" y="7860" width="120" height="40" as="geometry" />
        </mxCell>
        <mxCell id="j4kyOug0QfXY_9LdXEBC-749" value="发送团期库存生效失败邮件" style="rounded=1;whiteSpace=wrap;html=1;" vertex="1" parent="j4kyOug0QfXY_9LdXEBC-1">
          <mxGeometry x="195" y="8439" width="120" height="40" as="geometry" />
        </mxCell>
        <mxCell id="j4kyOug0QfXY_9LdXEBC-756" style="edgeStyle=orthogonalEdgeStyle;rounded=0;orthogonalLoop=1;jettySize=auto;html=1;entryX=0.5;entryY=0;entryDx=0;entryDy=0;endArrow=classic;endFill=1;" edge="1" parent="j4kyOug0QfXY_9LdXEBC-1" source="j4kyOug0QfXY_9LdXEBC-750" target="j4kyOug0QfXY_9LdXEBC-707">
          <mxGeometry relative="1" as="geometry" />
        </mxCell>
        <mxCell id="j4kyOug0QfXY_9LdXEBC-750" value="团期库存生效成功" style="rounded=1;whiteSpace=wrap;html=1;" vertex="1" parent="j4kyOug0QfXY_9LdXEBC-1">
          <mxGeometry x="195" y="8511" width="120" height="40" as="geometry" />
        </mxCell>
        <mxCell id="j4kyOug0QfXY_9LdXEBC-763" value="发送采购价生效失败邮件" style="rounded=1;whiteSpace=wrap;html=1;" vertex="1" parent="j4kyOug0QfXY_9LdXEBC-1">
          <mxGeometry x="195" y="8661" width="120" height="40" as="geometry" />
        </mxCell>
        <mxCell id="j4kyOug0QfXY_9LdXEBC-764" value="采购价生效成功" style="rounded=1;whiteSpace=wrap;html=1;" vertex="1" parent="j4kyOug0QfXY_9LdXEBC-1">
          <mxGeometry x="195" y="8753" width="120" height="40" as="geometry" />
        </mxCell>
        <mxCell id="j4kyOug0QfXY_9LdXEBC-3" value="商品盘点" style="rounded=1;whiteSpace=wrap;html=1;" vertex="1" parent="1">
          <mxGeometry x="130" y="150" width="130" height="40" as="geometry" />
        </mxCell>
        <mxCell id="j4kyOug0QfXY_9LdXEBC-5" value="" style="rounded=1;whiteSpace=wrap;html=1;" vertex="1" parent="1">
          <mxGeometry x="130" y="250" width="130" height="40" as="geometry" />
        </mxCell>
        <mxCell id="j4kyOug0QfXY_9LdXEBC-7" value="商品底池状态" style="swimlane;startSize=20;" vertex="1" parent="1">
          <mxGeometry x="589" y="390" width="281" height="8870" as="geometry" />
        </mxCell>
        <mxCell id="j4kyOug0QfXY_9LdXEBC-48" value="" style="edgeStyle=orthogonalEdgeStyle;rounded=0;orthogonalLoop=1;jettySize=auto;html=1;" edge="1" parent="j4kyOug0QfXY_9LdXEBC-7" source="j4kyOug0QfXY_9LdXEBC-19">
          <mxGeometry relative="1" as="geometry">
            <mxPoint x="155" y="530" as="targetPoint" />
          </mxGeometry>
        </mxCell>
        <mxCell id="j4kyOug0QfXY_9LdXEBC-19" value="商品状态变为已选" style="rounded=1;whiteSpace=wrap;html=1;" vertex="1" parent="j4kyOug0QfXY_9LdXEBC-7">
          <mxGeometry x="95" y="410" width="120" height="40" as="geometry" />
        </mxCell>
        <mxCell id="j4kyOug0QfXY_9LdXEBC-55" value="" style="rounded=1;whiteSpace=wrap;html=1;" vertex="1" parent="j4kyOug0QfXY_9LdXEBC-7">
          <mxGeometry x="85" y="50" width="120" height="210" as="geometry" />
        </mxCell>
        <mxCell id="j4kyOug0QfXY_9LdXEBC-56" value="总部-品牌共建" style="rounded=1;whiteSpace=wrap;html=1;" vertex="1" parent="j4kyOug0QfXY_9LdXEBC-7">
          <mxGeometry x="95" y="165" width="100" height="30" as="geometry" />
        </mxCell>
        <mxCell id="j4kyOug0QfXY_9LdXEBC-58" value="商品底池" style="text;html=1;strokeColor=none;fillColor=none;align=center;verticalAlign=middle;whiteSpace=wrap;rounded=0;" vertex="1" parent="j4kyOug0QfXY_9LdXEBC-7">
          <mxGeometry x="115" y="50" width="60" height="30" as="geometry" />
        </mxCell>
        <mxCell id="j4kyOug0QfXY_9LdXEBC-59" value="区域-非供应商提报" style="rounded=1;whiteSpace=wrap;html=1;" vertex="1" parent="j4kyOug0QfXY_9LdXEBC-7">
          <mxGeometry x="95" y="80" width="100" height="30" as="geometry" />
        </mxCell>
        <mxCell id="j4kyOug0QfXY_9LdXEBC-60" value="区域-供应商提报" style="rounded=1;whiteSpace=wrap;html=1;" vertex="1" parent="j4kyOug0QfXY_9LdXEBC-7">
          <mxGeometry x="95" y="120" width="100" height="30" as="geometry" />
        </mxCell>
        <mxCell id="j4kyOug0QfXY_9LdXEBC-61" value="总部-商品共享" style="rounded=1;whiteSpace=wrap;html=1;" vertex="1" parent="j4kyOug0QfXY_9LdXEBC-7">
          <mxGeometry x="95" y="210" width="100" height="30" as="geometry" />
        </mxCell>
        <mxCell id="j4kyOug0QfXY_9LdXEBC-269" value="商品排期状态变为待排期" style="rounded=1;whiteSpace=wrap;html=1;" vertex="1" parent="j4kyOug0QfXY_9LdXEBC-7">
          <mxGeometry x="95" y="530" width="120" height="40" as="geometry" />
        </mxCell>
        <mxCell id="j4kyOug0QfXY_9LdXEBC-307" value="是否删除待排期商品" style="rhombus;whiteSpace=wrap;html=1;" vertex="1" parent="j4kyOug0QfXY_9LdXEBC-7">
          <mxGeometry x="-290" y="2812" width="132" height="90" as="geometry" />
        </mxCell>
        <mxCell id="j4kyOug0QfXY_9LdXEBC-310" value="选择商品提交审批" style="rounded=1;whiteSpace=wrap;html=1;" vertex="1" parent="j4kyOug0QfXY_9LdXEBC-7">
          <mxGeometry x="-279" y="3150" width="110" height="40" as="geometry" />
        </mxCell>
        <mxCell id="j4kyOug0QfXY_9LdXEBC-323" style="edgeStyle=orthogonalEdgeStyle;rounded=0;orthogonalLoop=1;jettySize=auto;html=1;endArrow=classic;endFill=1;" edge="1" parent="j4kyOug0QfXY_9LdXEBC-7" target="j4kyOug0QfXY_9LdXEBC-310">
          <mxGeometry relative="1" as="geometry">
            <mxPoint x="-224" y="2903" as="sourcePoint" />
          </mxGeometry>
        </mxCell>
        <mxCell id="j4kyOug0QfXY_9LdXEBC-324" value="否" style="edgeLabel;html=1;align=center;verticalAlign=middle;resizable=0;points=[];" vertex="1" connectable="0" parent="j4kyOug0QfXY_9LdXEBC-323">
          <mxGeometry x="-0.1111" y="3" relative="1" as="geometry">
            <mxPoint as="offset" />
          </mxGeometry>
        </mxCell>
        <mxCell id="j4kyOug0QfXY_9LdXEBC-311" value="" style="edgeStyle=orthogonalEdgeStyle;rounded=0;orthogonalLoop=1;jettySize=auto;html=1;" edge="1" parent="j4kyOug0QfXY_9LdXEBC-7" source="j4kyOug0QfXY_9LdXEBC-312">
          <mxGeometry relative="1" as="geometry">
            <mxPoint x="145" y="3270" as="targetPoint" />
          </mxGeometry>
        </mxCell>
        <mxCell id="j4kyOug0QfXY_9LdXEBC-312" value="商品状态保持已选" style="rounded=1;whiteSpace=wrap;html=1;" vertex="1" parent="j4kyOug0QfXY_9LdXEBC-7">
          <mxGeometry x="85" y="3150" width="120" height="40" as="geometry" />
        </mxCell>
        <mxCell id="j4kyOug0QfXY_9LdXEBC-313" value="商品排期状态变为排期初审" style="rounded=1;whiteSpace=wrap;html=1;" vertex="1" parent="j4kyOug0QfXY_9LdXEBC-7">
          <mxGeometry x="85" y="3270" width="120" height="40" as="geometry" />
        </mxCell>
        <mxCell id="j4kyOug0QfXY_9LdXEBC-314" value="是" style="edgeStyle=orthogonalEdgeStyle;rounded=0;orthogonalLoop=1;jettySize=auto;html=1;entryX=0;entryY=0.5;entryDx=0;entryDy=0;endArrow=classic;endFill=1;" edge="1" parent="j4kyOug0QfXY_9LdXEBC-7" source="j4kyOug0QfXY_9LdXEBC-310">
          <mxGeometry relative="1" as="geometry">
            <mxPoint x="85" y="3170" as="targetPoint" />
          </mxGeometry>
        </mxCell>
        <mxCell id="j4kyOug0QfXY_9LdXEBC-315" value="" style="edgeStyle=orthogonalEdgeStyle;rounded=0;orthogonalLoop=1;jettySize=auto;html=1;" edge="1" parent="j4kyOug0QfXY_9LdXEBC-7" source="j4kyOug0QfXY_9LdXEBC-316">
          <mxGeometry relative="1" as="geometry">
            <mxPoint x="140.5" y="2958" as="targetPoint" />
          </mxGeometry>
        </mxCell>
        <mxCell id="j4kyOug0QfXY_9LdXEBC-316" value="商品状态变为未选" style="rounded=1;whiteSpace=wrap;html=1;" vertex="1" parent="j4kyOug0QfXY_9LdXEBC-7">
          <mxGeometry x="80.5" y="2838" width="120" height="40" as="geometry" />
        </mxCell>
        <mxCell id="j4kyOug0QfXY_9LdXEBC-325" style="edgeStyle=orthogonalEdgeStyle;rounded=0;orthogonalLoop=1;jettySize=auto;html=1;entryX=0;entryY=0.5;entryDx=0;entryDy=0;endArrow=classic;endFill=1;" edge="1" parent="j4kyOug0QfXY_9LdXEBC-7" target="j4kyOug0QfXY_9LdXEBC-316">
          <mxGeometry relative="1" as="geometry">
            <mxPoint x="-158" y="2858" as="sourcePoint" />
          </mxGeometry>
        </mxCell>
        <mxCell id="j4kyOug0QfXY_9LdXEBC-326" value="是" style="edgeLabel;html=1;align=center;verticalAlign=middle;resizable=0;points=[];" vertex="1" connectable="0" parent="j4kyOug0QfXY_9LdXEBC-325">
          <mxGeometry x="-0.2034" y="4" relative="1" as="geometry">
            <mxPoint as="offset" />
          </mxGeometry>
        </mxCell>
        <mxCell id="j4kyOug0QfXY_9LdXEBC-317" value="无商品排期状态" style="rounded=1;whiteSpace=wrap;html=1;" vertex="1" parent="j4kyOug0QfXY_9LdXEBC-7">
          <mxGeometry x="80.5" y="2958" width="120" height="40" as="geometry" />
        </mxCell>
        <mxCell id="j4kyOug0QfXY_9LdXEBC-318" value="是否为供应商自主提报" style="rhombus;whiteSpace=wrap;html=1;" vertex="1" parent="j4kyOug0QfXY_9LdXEBC-7">
          <mxGeometry x="91" y="3360" width="110" height="60" as="geometry" />
        </mxCell>
        <mxCell id="j4kyOug0QfXY_9LdXEBC-319" value="供应商自主提报排期商品保持&lt;span&gt;排期确认中（不可撤回）&lt;/span&gt;&lt;span style=&quot;font-size: medium&quot;&gt;&lt;/span&gt;" style="rounded=1;whiteSpace=wrap;html=1;" vertex="1" parent="j4kyOug0QfXY_9LdXEBC-7">
          <mxGeometry x="340" y="3370" width="137" height="40" as="geometry" />
        </mxCell>
        <mxCell id="j4kyOug0QfXY_9LdXEBC-320" style="edgeStyle=orthogonalEdgeStyle;rounded=0;orthogonalLoop=1;jettySize=auto;html=1;entryX=0;entryY=0.5;entryDx=0;entryDy=0;" edge="1" parent="j4kyOug0QfXY_9LdXEBC-7" source="j4kyOug0QfXY_9LdXEBC-318" target="j4kyOug0QfXY_9LdXEBC-319">
          <mxGeometry relative="1" as="geometry" />
        </mxCell>
        <mxCell id="j4kyOug0QfXY_9LdXEBC-321" value="是" style="edgeLabel;html=1;align=center;verticalAlign=middle;resizable=0;points=[];" vertex="1" connectable="0" parent="j4kyOug0QfXY_9LdXEBC-320">
          <mxGeometry x="-0.1758" y="1" relative="1" as="geometry">
            <mxPoint as="offset" />
          </mxGeometry>
        </mxCell>
        <mxCell id="j4kyOug0QfXY_9LdXEBC-322" style="edgeStyle=orthogonalEdgeStyle;rounded=0;orthogonalLoop=1;jettySize=auto;html=1;entryX=0.5;entryY=0;entryDx=0;entryDy=0;endArrow=classic;endFill=1;" edge="1" parent="j4kyOug0QfXY_9LdXEBC-7" target="j4kyOug0QfXY_9LdXEBC-318">
          <mxGeometry relative="1" as="geometry">
            <mxPoint x="146" y="3310" as="sourcePoint" />
          </mxGeometry>
        </mxCell>
        <mxCell id="j4kyOug0QfXY_9LdXEBC-389" value="" style="edgeStyle=orthogonalEdgeStyle;rounded=0;orthogonalLoop=1;jettySize=auto;html=1;" edge="1" parent="j4kyOug0QfXY_9LdXEBC-7" source="j4kyOug0QfXY_9LdXEBC-390">
          <mxGeometry relative="1" as="geometry">
            <mxPoint x="131" y="4100" as="targetPoint" />
          </mxGeometry>
        </mxCell>
        <mxCell id="j4kyOug0QfXY_9LdXEBC-390" value="商品状态保持已选" style="rounded=1;whiteSpace=wrap;html=1;" vertex="1" parent="j4kyOug0QfXY_9LdXEBC-7">
          <mxGeometry x="71" y="3980" width="120" height="40" as="geometry" />
        </mxCell>
        <mxCell id="j4kyOug0QfXY_9LdXEBC-391" value="商品排期状态变为待提交" style="rounded=1;whiteSpace=wrap;html=1;" vertex="1" parent="j4kyOug0QfXY_9LdXEBC-7">
          <mxGeometry x="71" y="4100" width="120" height="40" as="geometry" />
        </mxCell>
        <mxCell id="j4kyOug0QfXY_9LdXEBC-392" value="是否为供应商自主提报" style="rhombus;whiteSpace=wrap;html=1;" vertex="1" parent="j4kyOug0QfXY_9LdXEBC-7">
          <mxGeometry x="77" y="4190" width="110" height="60" as="geometry" />
        </mxCell>
        <mxCell id="j4kyOug0QfXY_9LdXEBC-396" style="edgeStyle=orthogonalEdgeStyle;rounded=0;orthogonalLoop=1;jettySize=auto;html=1;entryX=0.5;entryY=0;entryDx=0;entryDy=0;endArrow=classic;endFill=1;" edge="1" parent="j4kyOug0QfXY_9LdXEBC-7" target="j4kyOug0QfXY_9LdXEBC-392">
          <mxGeometry relative="1" as="geometry">
            <mxPoint x="132" y="4140" as="sourcePoint" />
          </mxGeometry>
        </mxCell>
        <mxCell id="j4kyOug0QfXY_9LdXEBC-398" value="" style="edgeStyle=orthogonalEdgeStyle;rounded=0;orthogonalLoop=1;jettySize=auto;html=1;" edge="1" parent="j4kyOug0QfXY_9LdXEBC-7" source="j4kyOug0QfXY_9LdXEBC-399">
          <mxGeometry relative="1" as="geometry">
            <mxPoint x="155" y="4730" as="targetPoint" />
          </mxGeometry>
        </mxCell>
        <mxCell id="j4kyOug0QfXY_9LdXEBC-399" value="商品状态保持已选" style="rounded=1;whiteSpace=wrap;html=1;" vertex="1" parent="j4kyOug0QfXY_9LdXEBC-7">
          <mxGeometry x="95" y="4610" width="120" height="40" as="geometry" />
        </mxCell>
        <mxCell id="j4kyOug0QfXY_9LdXEBC-400" value="商品排期状态变为供应商审批" style="rounded=1;whiteSpace=wrap;html=1;" vertex="1" parent="j4kyOug0QfXY_9LdXEBC-7">
          <mxGeometry x="95" y="4730" width="120" height="40" as="geometry" />
        </mxCell>
        <mxCell id="j4kyOug0QfXY_9LdXEBC-413" value="" style="edgeStyle=orthogonalEdgeStyle;rounded=0;orthogonalLoop=1;jettySize=auto;html=1;" edge="1" parent="j4kyOug0QfXY_9LdXEBC-7" source="j4kyOug0QfXY_9LdXEBC-414">
          <mxGeometry relative="1" as="geometry">
            <mxPoint x="137" y="4400" as="targetPoint" />
          </mxGeometry>
        </mxCell>
        <mxCell id="j4kyOug0QfXY_9LdXEBC-414" value="商品状态保持已选" style="rounded=1;whiteSpace=wrap;html=1;" vertex="1" parent="j4kyOug0QfXY_9LdXEBC-7">
          <mxGeometry x="77" y="4280" width="120" height="40" as="geometry" />
        </mxCell>
        <mxCell id="j4kyOug0QfXY_9LdXEBC-415" value="商品排期状态变为审核通过" style="rounded=1;whiteSpace=wrap;html=1;" vertex="1" parent="j4kyOug0QfXY_9LdXEBC-7">
          <mxGeometry x="77" y="4400" width="120" height="40" as="geometry" />
        </mxCell>
        <mxCell id="j4kyOug0QfXY_9LdXEBC-416" value="是否为供应商自主提报" style="rhombus;whiteSpace=wrap;html=1;" vertex="1" parent="j4kyOug0QfXY_9LdXEBC-7">
          <mxGeometry x="83" y="4490" width="110" height="60" as="geometry" />
        </mxCell>
        <mxCell id="j4kyOug0QfXY_9LdXEBC-417" value="供应商自主提报排期商品变为已采纳&lt;span style=&quot;font-size: medium&quot;&gt;&lt;/span&gt;&lt;span style=&quot;color: rgba(0 , 0 , 0 , 0) ; font-family: monospace ; font-size: 0px&quot;&gt;%3CmxGraphModel%3E%3Croot%3E%3CmxCell%20id%3D%220%22%2F%3E%3CmxCell%20id%3D%221%22%20parent%3D%220%22%2F%3E%3CmxCell%20id%3D%222%22%20value%3D%22%E4%BD%BF%E7%94%A8sku%E6%8E%92%E6%9C%9F%E8%AE%A1%E5%88%92%E5%94%AE%E5%8D%96%E5%BC%80%E5%A7%8B%E6%97%B6%E9%97%B4%E5%92%8C%E5%94%AE%E5%8D%96%E7%BB%93%E6%9D%9F%E6%97%B6%E9%97%B4%E6%9F%A5%E8%AF%A2%E9%87%87%E8%B4%AD%E4%BB%B7%22%20style%3D%22rounded%3D1%3BwhiteSpace%3Dwrap%3Bhtml%3D1%3B%22%20vertex%3D%221%22%20parent%3D%221%22%3E%3CmxGeometry%20x%3D%222115%22%20y%3D%221754%22%20width%3D%22120%22%20height%3D%2240%22%20as%3D%22geometry%22%2F%3E%3C%2FmxCell%3E%3C%2Froot%3E%3C%2FmxGraphModel%3E&lt;/span&gt;" style="rounded=1;whiteSpace=wrap;html=1;" vertex="1" parent="j4kyOug0QfXY_9LdXEBC-7">
          <mxGeometry x="332" y="4495" width="137" height="50" as="geometry" />
        </mxCell>
        <mxCell id="j4kyOug0QfXY_9LdXEBC-418" style="edgeStyle=orthogonalEdgeStyle;rounded=0;orthogonalLoop=1;jettySize=auto;html=1;entryX=0;entryY=0.5;entryDx=0;entryDy=0;" edge="1" parent="j4kyOug0QfXY_9LdXEBC-7" source="j4kyOug0QfXY_9LdXEBC-416" target="j4kyOug0QfXY_9LdXEBC-417">
          <mxGeometry relative="1" as="geometry" />
        </mxCell>
        <mxCell id="j4kyOug0QfXY_9LdXEBC-419" value="是" style="edgeLabel;html=1;align=center;verticalAlign=middle;resizable=0;points=[];" vertex="1" connectable="0" parent="j4kyOug0QfXY_9LdXEBC-418">
          <mxGeometry x="-0.1758" y="1" relative="1" as="geometry">
            <mxPoint as="offset" />
          </mxGeometry>
        </mxCell>
        <mxCell id="j4kyOug0QfXY_9LdXEBC-420" style="edgeStyle=orthogonalEdgeStyle;rounded=0;orthogonalLoop=1;jettySize=auto;html=1;entryX=0.5;entryY=0;entryDx=0;entryDy=0;endArrow=classic;endFill=1;" edge="1" parent="j4kyOug0QfXY_9LdXEBC-7" target="j4kyOug0QfXY_9LdXEBC-416">
          <mxGeometry relative="1" as="geometry">
            <mxPoint x="138" y="4440" as="sourcePoint" />
          </mxGeometry>
        </mxCell>
        <mxCell id="j4kyOug0QfXY_9LdXEBC-465" value="" style="edgeStyle=orthogonalEdgeStyle;rounded=0;orthogonalLoop=1;jettySize=auto;html=1;" edge="1" parent="j4kyOug0QfXY_9LdXEBC-7" source="j4kyOug0QfXY_9LdXEBC-466">
          <mxGeometry relative="1" as="geometry">
            <mxPoint x="159" y="5280" as="targetPoint" />
          </mxGeometry>
        </mxCell>
        <mxCell id="j4kyOug0QfXY_9LdXEBC-466" value="商品状态保持已选" style="rounded=1;whiteSpace=wrap;html=1;" vertex="1" parent="j4kyOug0QfXY_9LdXEBC-7">
          <mxGeometry x="99" y="5160" width="120" height="40" as="geometry" />
        </mxCell>
        <mxCell id="j4kyOug0QfXY_9LdXEBC-467" value="商品排期状态变为待提交" style="rounded=1;whiteSpace=wrap;html=1;" vertex="1" parent="j4kyOug0QfXY_9LdXEBC-7">
          <mxGeometry x="99" y="5280" width="120" height="40" as="geometry" />
        </mxCell>
        <mxCell id="j4kyOug0QfXY_9LdXEBC-468" value="是否为供应商自主提报" style="rhombus;whiteSpace=wrap;html=1;" vertex="1" parent="j4kyOug0QfXY_9LdXEBC-7">
          <mxGeometry x="105" y="5370" width="110" height="60" as="geometry" />
        </mxCell>
        <mxCell id="j4kyOug0QfXY_9LdXEBC-469" style="edgeStyle=orthogonalEdgeStyle;rounded=0;orthogonalLoop=1;jettySize=auto;html=1;entryX=0.5;entryY=0;entryDx=0;entryDy=0;endArrow=classic;endFill=1;" edge="1" parent="j4kyOug0QfXY_9LdXEBC-7" target="j4kyOug0QfXY_9LdXEBC-468">
          <mxGeometry relative="1" as="geometry">
            <mxPoint x="160" y="5320" as="sourcePoint" />
          </mxGeometry>
        </mxCell>
        <mxCell id="j4kyOug0QfXY_9LdXEBC-483" value="&lt;span&gt;排期审核完成&lt;/span&gt;" style="rounded=1;whiteSpace=wrap;html=1;" vertex="1" parent="j4kyOug0QfXY_9LdXEBC-7">
          <mxGeometry x="-149.5" y="5470" width="111" height="40" as="geometry" />
        </mxCell>
        <mxCell id="j4kyOug0QfXY_9LdXEBC-484" value="" style="edgeStyle=orthogonalEdgeStyle;rounded=0;orthogonalLoop=1;jettySize=auto;html=1;" edge="1" parent="j4kyOug0QfXY_9LdXEBC-7" source="j4kyOug0QfXY_9LdXEBC-485">
          <mxGeometry relative="1" as="geometry">
            <mxPoint x="159.5" y="5590" as="targetPoint" />
          </mxGeometry>
        </mxCell>
        <mxCell id="j4kyOug0QfXY_9LdXEBC-485" value="商品状态保持已选" style="rounded=1;whiteSpace=wrap;html=1;" vertex="1" parent="j4kyOug0QfXY_9LdXEBC-7">
          <mxGeometry x="99.5" y="5510" width="120" height="40" as="geometry" />
        </mxCell>
        <mxCell id="j4kyOug0QfXY_9LdXEBC-486" value="商品排期状态变为审核通过" style="rounded=1;whiteSpace=wrap;html=1;" vertex="1" parent="j4kyOug0QfXY_9LdXEBC-7">
          <mxGeometry x="99.5" y="5590" width="120" height="40" as="geometry" />
        </mxCell>
        <mxCell id="j4kyOug0QfXY_9LdXEBC-487" value="是否为供应商自主提报" style="rhombus;whiteSpace=wrap;html=1;" vertex="1" parent="j4kyOug0QfXY_9LdXEBC-7">
          <mxGeometry x="105.5" y="5680" width="110" height="60" as="geometry" />
        </mxCell>
        <mxCell id="j4kyOug0QfXY_9LdXEBC-488" style="edgeStyle=orthogonalEdgeStyle;rounded=0;orthogonalLoop=1;jettySize=auto;html=1;entryX=0.5;entryY=0;entryDx=0;entryDy=0;endArrow=classic;endFill=1;" edge="1" parent="j4kyOug0QfXY_9LdXEBC-7" target="j4kyOug0QfXY_9LdXEBC-487">
          <mxGeometry relative="1" as="geometry">
            <mxPoint x="160.5" y="5630" as="sourcePoint" />
          </mxGeometry>
        </mxCell>
        <mxCell id="j4kyOug0QfXY_9LdXEBC-489" value="供应商自主提报排期商品变为已采纳&lt;span style=&quot;font-size: medium&quot;&gt;&lt;/span&gt;&lt;span style=&quot;color: rgba(0 , 0 , 0 , 0) ; font-family: monospace ; font-size: 0px&quot;&gt;%3CmxGraphModel%3E%3Croot%3E%3CmxCell%20id%3D%220%22%2F%3E%3CmxCell%20id%3D%221%22%20parent%3D%220%22%2F%3E%3CmxCell%20id%3D%222%22%20value%3D%22%E4%BD%BF%E7%94%A8sku%E6%8E%92%E6%9C%9F%E8%AE%A1%E5%88%92%E5%94%AE%E5%8D%96%E5%BC%80%E5%A7%8B%E6%97%B6%E9%97%B4%E5%92%8C%E5%94%AE%E5%8D%96%E7%BB%93%E6%9D%9F%E6%97%B6%E9%97%B4%E6%9F%A5%E8%AF%A2%E9%87%87%E8%B4%AD%E4%BB%B7%22%20style%3D%22rounded%3D1%3BwhiteSpace%3Dwrap%3Bhtml%3D1%3B%22%20vertex%3D%221%22%20parent%3D%221%22%3E%3CmxGeometry%20x%3D%222115%22%20y%3D%221754%22%20width%3D%22120%22%20height%3D%2240%22%20as%3D%22geometry%22%2F%3E%3C%2FmxCell%3E%3C%2Froot%3E%3C%2FmxGraphModel%3E&lt;/span&gt;" style="rounded=1;whiteSpace=wrap;html=1;" vertex="1" parent="j4kyOug0QfXY_9LdXEBC-7">
          <mxGeometry x="315.5" y="5685" width="110" height="50" as="geometry" />
        </mxCell>
        <mxCell id="j4kyOug0QfXY_9LdXEBC-492" style="edgeStyle=orthogonalEdgeStyle;rounded=0;orthogonalLoop=1;jettySize=auto;html=1;entryX=0;entryY=0.5;entryDx=0;entryDy=0;endArrow=classic;endFill=1;exitX=0.5;exitY=1;exitDx=0;exitDy=0;" edge="1" parent="j4kyOug0QfXY_9LdXEBC-7" source="j4kyOug0QfXY_9LdXEBC-483" target="j4kyOug0QfXY_9LdXEBC-485">
          <mxGeometry relative="1" as="geometry" />
        </mxCell>
        <mxCell id="j4kyOug0QfXY_9LdXEBC-493" style="edgeStyle=orthogonalEdgeStyle;rounded=0;orthogonalLoop=1;jettySize=auto;html=1;entryX=0;entryY=0.5;entryDx=0;entryDy=0;" edge="1" parent="j4kyOug0QfXY_9LdXEBC-7" source="j4kyOug0QfXY_9LdXEBC-487" target="j4kyOug0QfXY_9LdXEBC-489">
          <mxGeometry relative="1" as="geometry" />
        </mxCell>
        <mxCell id="j4kyOug0QfXY_9LdXEBC-494" value="是" style="edgeLabel;html=1;align=center;verticalAlign=middle;resizable=0;points=[];" vertex="1" connectable="0" parent="j4kyOug0QfXY_9LdXEBC-493">
          <mxGeometry x="-0.1758" y="1" relative="1" as="geometry">
            <mxPoint as="offset" />
          </mxGeometry>
        </mxCell>
        <mxCell id="j4kyOug0QfXY_9LdXEBC-695" value="" style="edgeStyle=orthogonalEdgeStyle;rounded=0;orthogonalLoop=1;jettySize=auto;html=1;" edge="1" parent="j4kyOug0QfXY_9LdXEBC-7" source="j4kyOug0QfXY_9LdXEBC-696">
          <mxGeometry relative="1" as="geometry">
            <mxPoint x="155" y="7440" as="targetPoint" />
          </mxGeometry>
        </mxCell>
        <mxCell id="j4kyOug0QfXY_9LdXEBC-696" value="商品状态保持未选" style="rounded=1;whiteSpace=wrap;html=1;" vertex="1" parent="j4kyOug0QfXY_9LdXEBC-7">
          <mxGeometry x="95" y="7360" width="120" height="40" as="geometry" />
        </mxCell>
        <mxCell id="j4kyOug0QfXY_9LdXEBC-697" value="商品排期状态变为排期关闭" style="rounded=1;whiteSpace=wrap;html=1;" vertex="1" parent="j4kyOug0QfXY_9LdXEBC-7">
          <mxGeometry x="95" y="7440" width="120" height="40" as="geometry" />
        </mxCell>
        <mxCell id="j4kyOug0QfXY_9LdXEBC-698" value="是否为供应商自主提报" style="rhombus;whiteSpace=wrap;html=1;" vertex="1" parent="j4kyOug0QfXY_9LdXEBC-7">
          <mxGeometry x="101" y="7530" width="110" height="60" as="geometry" />
        </mxCell>
        <mxCell id="j4kyOug0QfXY_9LdXEBC-699" style="edgeStyle=orthogonalEdgeStyle;rounded=0;orthogonalLoop=1;jettySize=auto;html=1;entryX=0.5;entryY=0;entryDx=0;entryDy=0;endArrow=classic;endFill=1;" edge="1" parent="j4kyOug0QfXY_9LdXEBC-7" target="j4kyOug0QfXY_9LdXEBC-698">
          <mxGeometry relative="1" as="geometry">
            <mxPoint x="156" y="7480" as="sourcePoint" />
          </mxGeometry>
        </mxCell>
        <mxCell id="j4kyOug0QfXY_9LdXEBC-700" value="供应商自主提报排期商品变为未采纳&lt;span style=&quot;color: rgba(0 , 0 , 0 , 0) ; font-family: monospace ; font-size: 0px&quot;&gt;%3CmxGraphModel%3E%3Croot%3E%3CmxCell%20id%3D%220%22%2F%3E%3CmxCell%20id%3D%221%22%20parent%3D%220%22%2F%3E%3CmxCell%20id%3D%222%22%20value%3D%22%E4%BD%BF%E7%94%A8sku%E6%8E%92%E6%9C%9F%E8%AE%A1%E5%88%92%E5%94%AE%E5%8D%96%E5%BC%80%E5%A7%8B%E6%97%B6%E9%97%B4%E5%92%8C%E5%94%AE%E5%8D%96%E7%BB%93%E6%9D%9F%E6%97%B6%E9%97%B4%E6%9F%A5%E8%AF%A2%E9%87%87%E8%B4%AD%E4%BB%B7%22%20style%3D%22rounded%3D1%3BwhiteSpace%3Dwrap%3Bhtml%3D1%3B%22%20vertex%3D%221%22%20parent%3D%221%22%3E%3CmxGeometry%20x%3D%222115%22%20y%3D%221754%22%20width%3D%22120%22%20height%3D%2240%22%20as%3D%22geometry%22%2F%3E%3C%2FmxCell%3E%3C%2Froot%3E%3C%2FmxGraphModel%3E&lt;/span&gt;" style="rounded=1;whiteSpace=wrap;html=1;" vertex="1" parent="j4kyOug0QfXY_9LdXEBC-7">
          <mxGeometry x="311" y="7535" width="110" height="50" as="geometry" />
        </mxCell>
        <mxCell id="j4kyOug0QfXY_9LdXEBC-701" style="edgeStyle=orthogonalEdgeStyle;rounded=0;orthogonalLoop=1;jettySize=auto;html=1;entryX=0;entryY=0.5;entryDx=0;entryDy=0;" edge="1" parent="j4kyOug0QfXY_9LdXEBC-7" source="j4kyOug0QfXY_9LdXEBC-698" target="j4kyOug0QfXY_9LdXEBC-700">
          <mxGeometry relative="1" as="geometry" />
        </mxCell>
        <mxCell id="j4kyOug0QfXY_9LdXEBC-702" value="是" style="edgeLabel;html=1;align=center;verticalAlign=middle;resizable=0;points=[];" vertex="1" connectable="0" parent="j4kyOug0QfXY_9LdXEBC-701">
          <mxGeometry x="-0.1758" y="1" relative="1" as="geometry">
            <mxPoint as="offset" />
          </mxGeometry>
        </mxCell>
        <mxCell id="j4kyOug0QfXY_9LdXEBC-9" value="供应商小程序" style="swimlane;startSize=20;" vertex="1" parent="1">
          <mxGeometry x="870" y="390" width="290" height="8870" as="geometry" />
        </mxCell>
        <mxCell id="j4kyOug0QfXY_9LdXEBC-63" value="" style="edgeStyle=orthogonalEdgeStyle;rounded=0;orthogonalLoop=1;jettySize=auto;html=1;" edge="1" parent="j4kyOug0QfXY_9LdXEBC-9" target="j4kyOug0QfXY_9LdXEBC-62">
          <mxGeometry relative="1" as="geometry">
            <mxPoint x="145" y="175" as="sourcePoint" />
          </mxGeometry>
        </mxCell>
        <mxCell id="j4kyOug0QfXY_9LdXEBC-62" value="供应商自主提报排期商品变为待排期" style="rounded=1;whiteSpace=wrap;html=1;" vertex="1" parent="j4kyOug0QfXY_9LdXEBC-9">
          <mxGeometry x="85" y="220" width="120" height="40" as="geometry" />
        </mxCell>
        <mxCell id="j4kyOug0QfXY_9LdXEBC-68" value="" style="edgeStyle=orthogonalEdgeStyle;rounded=0;orthogonalLoop=1;jettySize=auto;html=1;" edge="1" parent="j4kyOug0QfXY_9LdXEBC-9" source="j4kyOug0QfXY_9LdXEBC-66" target="j4kyOug0QfXY_9LdXEBC-67">
          <mxGeometry relative="1" as="geometry" />
        </mxCell>
        <mxCell id="j4kyOug0QfXY_9LdXEBC-66" value="供应商自主提报排期商品" style="rounded=1;whiteSpace=wrap;html=1;" vertex="1" parent="j4kyOug0QfXY_9LdXEBC-9">
          <mxGeometry x="85" y="60" width="120" height="40" as="geometry" />
        </mxCell>
        <mxCell id="j4kyOug0QfXY_9LdXEBC-67" value="供应商自主提报排期商品同步商品底池" style="rounded=1;whiteSpace=wrap;html=1;" vertex="1" parent="j4kyOug0QfXY_9LdXEBC-9">
          <mxGeometry x="85" y="135" width="120" height="40" as="geometry" />
        </mxCell>
        <mxCell id="j4kyOug0QfXY_9LdXEBC-265" value="是否为供应商自主提报" style="rhombus;whiteSpace=wrap;html=1;" vertex="1" parent="j4kyOug0QfXY_9LdXEBC-9">
          <mxGeometry x="-181" y="620" width="110" height="60" as="geometry" />
        </mxCell>
        <mxCell id="j4kyOug0QfXY_9LdXEBC-267" style="edgeStyle=orthogonalEdgeStyle;rounded=0;orthogonalLoop=1;jettySize=auto;html=1;entryX=0;entryY=0.5;entryDx=0;entryDy=0;" edge="1" parent="j4kyOug0QfXY_9LdXEBC-9" source="j4kyOug0QfXY_9LdXEBC-265">
          <mxGeometry relative="1" as="geometry">
            <mxPoint x="85" y="650" as="targetPoint" />
          </mxGeometry>
        </mxCell>
        <mxCell id="j4kyOug0QfXY_9LdXEBC-268" value="是" style="edgeLabel;html=1;align=center;verticalAlign=middle;resizable=0;points=[];" vertex="1" connectable="0" parent="j4kyOug0QfXY_9LdXEBC-267">
          <mxGeometry x="-0.1758" y="1" relative="1" as="geometry">
            <mxPoint as="offset" />
          </mxGeometry>
        </mxCell>
        <mxCell id="j4kyOug0QfXY_9LdXEBC-298" value="供应商自主提报排期商品&lt;span&gt;排期确认中（不可撤回）&lt;/span&gt;&lt;span style=&quot;font-size: medium&quot;&gt;&lt;/span&gt;" style="rounded=1;whiteSpace=wrap;html=1;" vertex="1" parent="j4kyOug0QfXY_9LdXEBC-9">
          <mxGeometry x="85" y="630" width="137" height="40" as="geometry" />
        </mxCell>
        <mxCell id="j4kyOug0QfXY_9LdXEBC-359" value="供应商自主提报排期商品&lt;span&gt;排期确认中（不可撤回）&lt;/span&gt;&lt;span style=&quot;font-size: medium&quot;&gt;&lt;/span&gt;" style="rounded=1;whiteSpace=wrap;html=1;" vertex="1" parent="j4kyOug0QfXY_9LdXEBC-9">
          <mxGeometry x="63" y="2685" width="137" height="40" as="geometry" />
        </mxCell>
        <mxCell id="j4kyOug0QfXY_9LdXEBC-363" value="是否为供应商自主提报" style="rhombus;whiteSpace=wrap;html=1;" vertex="1" parent="j4kyOug0QfXY_9LdXEBC-9">
          <mxGeometry x="-196" y="3040" width="110" height="60" as="geometry" />
        </mxCell>
        <mxCell id="j4kyOug0QfXY_9LdXEBC-364" value="供应商自主提报排期商品变为待排期&lt;span style=&quot;font-size: medium&quot;&gt;&lt;/span&gt;" style="rounded=1;whiteSpace=wrap;html=1;" vertex="1" parent="j4kyOug0QfXY_9LdXEBC-9">
          <mxGeometry x="53" y="3050" width="137" height="40" as="geometry" />
        </mxCell>
        <mxCell id="j4kyOug0QfXY_9LdXEBC-365" style="edgeStyle=orthogonalEdgeStyle;rounded=0;orthogonalLoop=1;jettySize=auto;html=1;entryX=0;entryY=0.5;entryDx=0;entryDy=0;" edge="1" parent="j4kyOug0QfXY_9LdXEBC-9" source="j4kyOug0QfXY_9LdXEBC-363" target="j4kyOug0QfXY_9LdXEBC-364">
          <mxGeometry relative="1" as="geometry" />
        </mxCell>
        <mxCell id="j4kyOug0QfXY_9LdXEBC-366" value="是" style="edgeLabel;html=1;align=center;verticalAlign=middle;resizable=0;points=[];" vertex="1" connectable="0" parent="j4kyOug0QfXY_9LdXEBC-365">
          <mxGeometry x="-0.1758" y="1" relative="1" as="geometry">
            <mxPoint as="offset" />
          </mxGeometry>
        </mxCell>
        <mxCell id="j4kyOug0QfXY_9LdXEBC-393" value="供应商自主提报排期商品保持&lt;span&gt;排期确认中（不可撤回）&lt;/span&gt;&lt;span style=&quot;font-size: medium&quot;&gt;&lt;/span&gt;" style="rounded=1;whiteSpace=wrap;html=1;" vertex="1" parent="j4kyOug0QfXY_9LdXEBC-9">
          <mxGeometry x="50" y="4195" width="137" height="50" as="geometry" />
        </mxCell>
        <mxCell id="j4kyOug0QfXY_9LdXEBC-436" style="edgeStyle=orthogonalEdgeStyle;rounded=0;orthogonalLoop=1;jettySize=auto;html=1;entryX=0.5;entryY=0;entryDx=0;entryDy=0;endArrow=classic;endFill=1;" edge="1" parent="j4kyOug0QfXY_9LdXEBC-9" source="j4kyOug0QfXY_9LdXEBC-402" target="j4kyOug0QfXY_9LdXEBC-435">
          <mxGeometry relative="1" as="geometry" />
        </mxCell>
        <mxCell id="j4kyOug0QfXY_9LdXEBC-402" value="供应商小程序进行审批" style="rounded=1;whiteSpace=wrap;html=1;" vertex="1" parent="j4kyOug0QfXY_9LdXEBC-9">
          <mxGeometry x="76.5" y="4967" width="137" height="50" as="geometry" />
        </mxCell>
        <mxCell id="j4kyOug0QfXY_9LdXEBC-435" value="是否审批通过" style="rhombus;whiteSpace=wrap;html=1;" vertex="1" parent="j4kyOug0QfXY_9LdXEBC-9">
          <mxGeometry x="90" y="5080" width="110" height="60" as="geometry" />
        </mxCell>
        <mxCell id="j4kyOug0QfXY_9LdXEBC-470" value="供应商自主提报排期商品保持&lt;span&gt;排期确认中（不可撤回）&lt;/span&gt;&lt;span style=&quot;font-size: medium&quot;&gt;&lt;/span&gt;" style="rounded=1;whiteSpace=wrap;html=1;" vertex="1" parent="j4kyOug0QfXY_9LdXEBC-9">
          <mxGeometry x="10" y="5375" width="120" height="50" as="geometry" />
        </mxCell>
        <mxCell id="j4kyOug0QfXY_9LdXEBC-657" style="edgeStyle=orthogonalEdgeStyle;rounded=0;orthogonalLoop=1;jettySize=auto;html=1;endArrow=none;endFill=0;exitX=1;exitY=1;exitDx=0;exitDy=0;" edge="1" parent="j4kyOug0QfXY_9LdXEBC-9">
          <mxGeometry relative="1" as="geometry">
            <mxPoint x="-730" y="6370" as="sourcePoint" />
            <mxPoint x="1741" y="6370" as="targetPoint" />
            <Array as="points">
              <mxPoint x="-100" y="6370" />
              <mxPoint x="-100" y="6370" />
            </Array>
          </mxGeometry>
        </mxCell>
        <mxCell id="j4kyOug0QfXY_9LdXEBC-10" value="团活动" style="swimlane;startSize=20;" vertex="1" parent="1">
          <mxGeometry x="1160" y="390" width="290" height="8870" as="geometry" />
        </mxCell>
        <mxCell id="j4kyOug0QfXY_9LdXEBC-650" value="团活动状态发生变更" style="rounded=1;whiteSpace=wrap;html=1;" vertex="1" parent="j4kyOug0QfXY_9LdXEBC-10">
          <mxGeometry x="81" y="6115" width="137" height="50" as="geometry" />
        </mxCell>
        <mxCell id="j4kyOug0QfXY_9LdXEBC-653" value="团活动限购信息发生变更" style="rounded=1;whiteSpace=wrap;html=1;" vertex="1" parent="j4kyOug0QfXY_9LdXEBC-10">
          <mxGeometry x="81" y="6230" width="137" height="50" as="geometry" />
        </mxCell>
        <mxCell id="j4kyOug0QfXY_9LdXEBC-666" style="edgeStyle=orthogonalEdgeStyle;rounded=0;orthogonalLoop=1;jettySize=auto;html=1;entryX=0.5;entryY=0;entryDx=0;entryDy=0;endArrow=classic;endFill=1;" edge="1" parent="j4kyOug0QfXY_9LdXEBC-10" source="j4kyOug0QfXY_9LdXEBC-662" target="j4kyOug0QfXY_9LdXEBC-665">
          <mxGeometry relative="1" as="geometry" />
        </mxCell>
        <mxCell id="j4kyOug0QfXY_9LdXEBC-662" value="排期商品创建团活动" style="rounded=1;whiteSpace=wrap;html=1;" vertex="1" parent="j4kyOug0QfXY_9LdXEBC-10">
          <mxGeometry x="89.5" y="6520" width="120" height="40" as="geometry" />
        </mxCell>
        <mxCell id="j4kyOug0QfXY_9LdXEBC-665" value="是否创建团活动成功" style="rhombus;whiteSpace=wrap;html=1;" vertex="1" parent="j4kyOug0QfXY_9LdXEBC-10">
          <mxGeometry x="94.5" y="6610" width="110" height="60" as="geometry" />
        </mxCell>
        <mxCell id="j4kyOug0QfXY_9LdXEBC-21" style="edgeStyle=orthogonalEdgeStyle;rounded=0;orthogonalLoop=1;jettySize=auto;html=1;entryX=0;entryY=0.5;entryDx=0;entryDy=0;" edge="1" parent="1" source="j4kyOug0QfXY_9LdXEBC-20" target="j4kyOug0QfXY_9LdXEBC-19">
          <mxGeometry relative="1" as="geometry">
            <Array as="points">
              <mxPoint x="600" y="700" />
              <mxPoint x="600" y="820" />
            </Array>
          </mxGeometry>
        </mxCell>
        <mxCell id="j4kyOug0QfXY_9LdXEBC-22" value="是" style="edgeLabel;html=1;align=center;verticalAlign=middle;resizable=0;points=[];" vertex="1" connectable="0" parent="j4kyOug0QfXY_9LdXEBC-21">
          <mxGeometry x="-0.1886" relative="1" as="geometry">
            <mxPoint as="offset" />
          </mxGeometry>
        </mxCell>
        <mxCell id="j4kyOug0QfXY_9LdXEBC-29" style="edgeStyle=orthogonalEdgeStyle;rounded=0;orthogonalLoop=1;jettySize=auto;html=1;entryX=0;entryY=0.5;entryDx=0;entryDy=0;" edge="1" parent="1" source="j4kyOug0QfXY_9LdXEBC-26" target="j4kyOug0QfXY_9LdXEBC-19">
          <mxGeometry relative="1" as="geometry">
            <mxPoint x="665" y="920" as="targetPoint" />
            <Array as="points">
              <mxPoint x="600" y="920" />
              <mxPoint x="600" y="820" />
            </Array>
          </mxGeometry>
        </mxCell>
        <mxCell id="j4kyOug0QfXY_9LdXEBC-30" value="是" style="edgeLabel;html=1;align=center;verticalAlign=middle;resizable=0;points=[];" vertex="1" connectable="0" parent="j4kyOug0QfXY_9LdXEBC-29">
          <mxGeometry x="-0.0971" y="1" relative="1" as="geometry">
            <mxPoint as="offset" />
          </mxGeometry>
        </mxCell>
        <mxCell id="j4kyOug0QfXY_9LdXEBC-40" value="拼拼价" style="swimlane;startSize=20;" vertex="1" parent="1">
          <mxGeometry x="1450" y="390" width="290" height="8870" as="geometry" />
        </mxCell>
        <mxCell id="j4kyOug0QfXY_9LdXEBC-117" value="返回商品实时拼拼价" style="rounded=1;whiteSpace=wrap;html=1;" vertex="1" parent="j4kyOug0QfXY_9LdXEBC-40">
          <mxGeometry x="84" y="1530" width="120" height="40" as="geometry" />
        </mxCell>
        <mxCell id="j4kyOug0QfXY_9LdXEBC-711" style="edgeStyle=orthogonalEdgeStyle;rounded=0;orthogonalLoop=1;jettySize=auto;html=1;entryX=0.5;entryY=0;entryDx=0;entryDy=0;endArrow=classic;endFill=1;" edge="1" parent="j4kyOug0QfXY_9LdXEBC-40" source="j4kyOug0QfXY_9LdXEBC-708" target="j4kyOug0QfXY_9LdXEBC-710">
          <mxGeometry relative="1" as="geometry" />
        </mxCell>
        <mxCell id="j4kyOug0QfXY_9LdXEBC-708" value="全国拼拼价生效" style="rounded=1;whiteSpace=wrap;html=1;" vertex="1" parent="j4kyOug0QfXY_9LdXEBC-40">
          <mxGeometry x="85" y="7680" width="120" height="40" as="geometry" />
        </mxCell>
        <mxCell id="j4kyOug0QfXY_9LdXEBC-710" value="是否全国拼拼价生效" style="rhombus;whiteSpace=wrap;html=1;" vertex="1" parent="j4kyOug0QfXY_9LdXEBC-40">
          <mxGeometry x="90" y="7760" width="110" height="60" as="geometry" />
        </mxCell>
        <mxCell id="j4kyOug0QfXY_9LdXEBC-41" value="库存中台" style="swimlane;startSize=20;" vertex="1" parent="1">
          <mxGeometry x="1740" y="390" width="290" height="8870" as="geometry" />
        </mxCell>
        <mxCell id="j4kyOug0QfXY_9LdXEBC-655" value="团期库存发生变更" style="rounded=1;whiteSpace=wrap;html=1;" vertex="1" parent="j4kyOug0QfXY_9LdXEBC-41">
          <mxGeometry x="100" y="6300" width="120" height="40" as="geometry" />
        </mxCell>
        <mxCell id="j4kyOug0QfXY_9LdXEBC-730" style="edgeStyle=orthogonalEdgeStyle;rounded=0;orthogonalLoop=1;jettySize=auto;html=1;exitX=0.5;exitY=1;exitDx=0;exitDy=0;entryX=0.5;entryY=0;entryDx=0;entryDy=0;endArrow=classic;endFill=1;" edge="1" parent="j4kyOug0QfXY_9LdXEBC-41" source="j4kyOug0QfXY_9LdXEBC-720" target="j4kyOug0QfXY_9LdXEBC-722">
          <mxGeometry relative="1" as="geometry" />
        </mxCell>
        <mxCell id="j4kyOug0QfXY_9LdXEBC-732" value="是" style="edgeLabel;html=1;align=center;verticalAlign=middle;resizable=0;points=[];" vertex="1" connectable="0" parent="j4kyOug0QfXY_9LdXEBC-730">
          <mxGeometry x="0.159" relative="1" as="geometry">
            <mxPoint as="offset" />
          </mxGeometry>
        </mxCell>
        <mxCell id="j4kyOug0QfXY_9LdXEBC-731" style="edgeStyle=orthogonalEdgeStyle;rounded=0;orthogonalLoop=1;jettySize=auto;html=1;exitX=1;exitY=0.5;exitDx=0;exitDy=0;entryX=0.5;entryY=0;entryDx=0;entryDy=0;endArrow=classic;endFill=1;" edge="1" parent="j4kyOug0QfXY_9LdXEBC-41" source="j4kyOug0QfXY_9LdXEBC-720" target="j4kyOug0QfXY_9LdXEBC-729">
          <mxGeometry relative="1" as="geometry" />
        </mxCell>
        <mxCell id="j4kyOug0QfXY_9LdXEBC-733" value="否" style="edgeLabel;html=1;align=center;verticalAlign=middle;resizable=0;points=[];" vertex="1" connectable="0" parent="j4kyOug0QfXY_9LdXEBC-731">
          <mxGeometry x="0.0254" y="1" relative="1" as="geometry">
            <mxPoint as="offset" />
          </mxGeometry>
        </mxCell>
        <mxCell id="j4kyOug0QfXY_9LdXEBC-720" value="是否总部-商品共享" style="rhombus;whiteSpace=wrap;html=1;" vertex="1" parent="j4kyOug0QfXY_9LdXEBC-41">
          <mxGeometry x="95" y="7930" width="110" height="60" as="geometry" />
        </mxCell>
        <mxCell id="j4kyOug0QfXY_9LdXEBC-737" value="" style="edgeStyle=orthogonalEdgeStyle;rounded=0;orthogonalLoop=1;jettySize=auto;html=1;endArrow=classic;endFill=1;" edge="1" parent="j4kyOug0QfXY_9LdXEBC-41" source="j4kyOug0QfXY_9LdXEBC-722" target="j4kyOug0QfXY_9LdXEBC-736">
          <mxGeometry relative="1" as="geometry" />
        </mxCell>
        <mxCell id="j4kyOug0QfXY_9LdXEBC-722" value="B仓C仓箱规装换" style="rounded=1;whiteSpace=wrap;html=1;" vertex="1" parent="j4kyOug0QfXY_9LdXEBC-41">
          <mxGeometry x="25" y="8040" width="90" height="40" as="geometry" />
        </mxCell>
        <mxCell id="j4kyOug0QfXY_9LdXEBC-748" style="edgeStyle=orthogonalEdgeStyle;rounded=0;orthogonalLoop=1;jettySize=auto;html=1;entryX=0.5;entryY=0;entryDx=0;entryDy=0;endArrow=classic;endFill=1;" edge="1" parent="j4kyOug0QfXY_9LdXEBC-41" source="j4kyOug0QfXY_9LdXEBC-729" target="j4kyOug0QfXY_9LdXEBC-746">
          <mxGeometry relative="1" as="geometry">
            <Array as="points">
              <mxPoint x="230" y="8400" />
              <mxPoint x="160" y="8400" />
            </Array>
          </mxGeometry>
        </mxCell>
        <mxCell id="j4kyOug0QfXY_9LdXEBC-729" value="设置团期库存" style="rounded=1;whiteSpace=wrap;html=1;" vertex="1" parent="j4kyOug0QfXY_9LdXEBC-41">
          <mxGeometry x="185" y="8040" width="90" height="40" as="geometry" />
        </mxCell>
        <mxCell id="j4kyOug0QfXY_9LdXEBC-745" style="edgeStyle=orthogonalEdgeStyle;rounded=0;orthogonalLoop=1;jettySize=auto;html=1;entryX=0.5;entryY=0;entryDx=0;entryDy=0;endArrow=classic;endFill=1;" edge="1" parent="j4kyOug0QfXY_9LdXEBC-41" source="j4kyOug0QfXY_9LdXEBC-734" target="j4kyOug0QfXY_9LdXEBC-735">
          <mxGeometry relative="1" as="geometry" />
        </mxCell>
        <mxCell id="j4kyOug0QfXY_9LdXEBC-734" value="锁B仓可用库存" style="rounded=1;whiteSpace=wrap;html=1;" vertex="1" parent="j4kyOug0QfXY_9LdXEBC-41">
          <mxGeometry x="55" y="8270" width="90" height="40" as="geometry" />
        </mxCell>
        <mxCell id="j4kyOug0QfXY_9LdXEBC-747" style="edgeStyle=orthogonalEdgeStyle;rounded=0;orthogonalLoop=1;jettySize=auto;html=1;endArrow=classic;endFill=1;" edge="1" parent="j4kyOug0QfXY_9LdXEBC-41" source="j4kyOug0QfXY_9LdXEBC-735" target="j4kyOug0QfXY_9LdXEBC-746">
          <mxGeometry relative="1" as="geometry">
            <Array as="points">
              <mxPoint x="100" y="8400" />
              <mxPoint x="160" y="8400" />
            </Array>
          </mxGeometry>
        </mxCell>
        <mxCell id="j4kyOug0QfXY_9LdXEBC-735" value="设置C仓团期库存" style="rounded=1;whiteSpace=wrap;html=1;" vertex="1" parent="j4kyOug0QfXY_9LdXEBC-41">
          <mxGeometry x="55" y="8340" width="90" height="40" as="geometry" />
        </mxCell>
        <mxCell id="j4kyOug0QfXY_9LdXEBC-740" style="edgeStyle=orthogonalEdgeStyle;rounded=0;orthogonalLoop=1;jettySize=auto;html=1;entryX=0.5;entryY=0;entryDx=0;entryDy=0;endArrow=classic;endFill=1;" edge="1" parent="j4kyOug0QfXY_9LdXEBC-41" source="j4kyOug0QfXY_9LdXEBC-736" target="j4kyOug0QfXY_9LdXEBC-738">
          <mxGeometry relative="1" as="geometry" />
        </mxCell>
        <mxCell id="j4kyOug0QfXY_9LdXEBC-741" style="edgeStyle=orthogonalEdgeStyle;rounded=0;orthogonalLoop=1;jettySize=auto;html=1;exitX=1;exitY=0.5;exitDx=0;exitDy=0;entryX=0.5;entryY=0;entryDx=0;entryDy=0;endArrow=classic;endFill=1;" edge="1" parent="j4kyOug0QfXY_9LdXEBC-41" source="j4kyOug0QfXY_9LdXEBC-736" target="j4kyOug0QfXY_9LdXEBC-739">
          <mxGeometry relative="1" as="geometry">
            <Array as="points">
              <mxPoint x="135" y="8140" />
            </Array>
          </mxGeometry>
        </mxCell>
        <mxCell id="j4kyOug0QfXY_9LdXEBC-736" value="团期库存是否够用" style="rhombus;whiteSpace=wrap;html=1;" vertex="1" parent="j4kyOug0QfXY_9LdXEBC-41">
          <mxGeometry x="15" y="8110" width="110" height="60" as="geometry" />
        </mxCell>
        <mxCell id="j4kyOug0QfXY_9LdXEBC-742" style="edgeStyle=orthogonalEdgeStyle;rounded=0;orthogonalLoop=1;jettySize=auto;html=1;entryX=0.5;entryY=0;entryDx=0;entryDy=0;endArrow=classic;endFill=1;" edge="1" parent="j4kyOug0QfXY_9LdXEBC-41" source="j4kyOug0QfXY_9LdXEBC-738" target="j4kyOug0QfXY_9LdXEBC-734">
          <mxGeometry relative="1" as="geometry" />
        </mxCell>
        <mxCell id="j4kyOug0QfXY_9LdXEBC-738" value="锁团期库存" style="rounded=1;whiteSpace=wrap;html=1;" vertex="1" parent="j4kyOug0QfXY_9LdXEBC-41">
          <mxGeometry x="50" y="8190" width="40" height="40" as="geometry" />
        </mxCell>
        <mxCell id="j4kyOug0QfXY_9LdXEBC-744" style="edgeStyle=orthogonalEdgeStyle;rounded=0;orthogonalLoop=1;jettySize=auto;html=1;entryX=0.5;entryY=0;entryDx=0;entryDy=0;endArrow=classic;endFill=1;" edge="1" parent="j4kyOug0QfXY_9LdXEBC-41" source="j4kyOug0QfXY_9LdXEBC-739" target="j4kyOug0QfXY_9LdXEBC-734">
          <mxGeometry relative="1" as="geometry" />
        </mxCell>
        <mxCell id="j4kyOug0QfXY_9LdXEBC-739" value="锁最大可用" style="rounded=1;whiteSpace=wrap;html=1;" vertex="1" parent="j4kyOug0QfXY_9LdXEBC-41">
          <mxGeometry x="115" y="8190" width="40" height="40" as="geometry" />
        </mxCell>
        <mxCell id="j4kyOug0QfXY_9LdXEBC-746" value="库存是否设置成功" style="rhombus;whiteSpace=wrap;html=1;" vertex="1" parent="j4kyOug0QfXY_9LdXEBC-41">
          <mxGeometry x="105" y="8428" width="110" height="60" as="geometry" />
        </mxCell>
        <mxCell id="j4kyOug0QfXY_9LdXEBC-772" style="edgeStyle=orthogonalEdgeStyle;rounded=0;orthogonalLoop=1;jettySize=auto;html=1;exitX=0.5;exitY=1;exitDx=0;exitDy=0;entryX=0.5;entryY=0;entryDx=0;entryDy=0;endArrow=classic;endFill=1;" edge="1" parent="j4kyOug0QfXY_9LdXEBC-41" source="j4kyOug0QfXY_9LdXEBC-769" target="j4kyOug0QfXY_9LdXEBC-771">
          <mxGeometry relative="1" as="geometry" />
        </mxCell>
        <mxCell id="j4kyOug0QfXY_9LdXEBC-775" value="是" style="edgeLabel;html=1;align=center;verticalAlign=middle;resizable=0;points=[];" vertex="1" connectable="0" parent="j4kyOug0QfXY_9LdXEBC-772">
          <mxGeometry x="-0.7409" relative="1" as="geometry">
            <mxPoint as="offset" />
          </mxGeometry>
        </mxCell>
        <mxCell id="j4kyOug0QfXY_9LdXEBC-773" style="edgeStyle=orthogonalEdgeStyle;rounded=0;orthogonalLoop=1;jettySize=auto;html=1;exitX=1;exitY=0.5;exitDx=0;exitDy=0;entryX=0.5;entryY=0;entryDx=0;entryDy=0;endArrow=classic;endFill=1;" edge="1" parent="j4kyOug0QfXY_9LdXEBC-41" source="j4kyOug0QfXY_9LdXEBC-769" target="j4kyOug0QfXY_9LdXEBC-770">
          <mxGeometry relative="1" as="geometry" />
        </mxCell>
        <mxCell id="j4kyOug0QfXY_9LdXEBC-774" value="否" style="edgeLabel;html=1;align=center;verticalAlign=middle;resizable=0;points=[];" vertex="1" connectable="0" parent="j4kyOug0QfXY_9LdXEBC-773">
          <mxGeometry x="0.0251" y="2" relative="1" as="geometry">
            <mxPoint as="offset" />
          </mxGeometry>
        </mxCell>
        <mxCell id="j4kyOug0QfXY_9LdXEBC-769" value="是否总部-商品共享" style="rhombus;whiteSpace=wrap;html=1;" vertex="1" parent="j4kyOug0QfXY_9LdXEBC-41">
          <mxGeometry x="85" y="1433" width="110" height="60" as="geometry" />
        </mxCell>
        <mxCell id="j4kyOug0QfXY_9LdXEBC-770" value="返回商品实时团期库存" style="rounded=1;whiteSpace=wrap;html=1;" vertex="1" parent="j4kyOug0QfXY_9LdXEBC-41">
          <mxGeometry x="175" y="1549" width="85" height="40" as="geometry" />
        </mxCell>
        <mxCell id="j4kyOug0QfXY_9LdXEBC-771" value="返回B仓可用库存与C仓现货库存之和" style="rounded=1;whiteSpace=wrap;html=1;" vertex="1" parent="j4kyOug0QfXY_9LdXEBC-41">
          <mxGeometry x="55" y="1549" width="85" height="40" as="geometry" />
        </mxCell>
        <mxCell id="j4kyOug0QfXY_9LdXEBC-780" value="是否总部-商品共享" style="rhombus;whiteSpace=wrap;html=1;" vertex="1" parent="j4kyOug0QfXY_9LdXEBC-41">
          <mxGeometry x="107.5" y="2450" width="80" height="50" as="geometry" />
        </mxCell>
        <mxCell id="j4kyOug0QfXY_9LdXEBC-781" value="返回商品实时团期库存" style="rounded=1;whiteSpace=wrap;html=1;" vertex="1" parent="j4kyOug0QfXY_9LdXEBC-41">
          <mxGeometry x="177.5" y="2526" width="85" height="40" as="geometry" />
        </mxCell>
        <mxCell id="j4kyOug0QfXY_9LdXEBC-778" style="edgeStyle=orthogonalEdgeStyle;rounded=0;orthogonalLoop=1;jettySize=auto;html=1;exitX=1;exitY=0.5;exitDx=0;exitDy=0;entryX=0.5;entryY=0;entryDx=0;entryDy=0;endArrow=classic;endFill=1;" edge="1" parent="j4kyOug0QfXY_9LdXEBC-41" source="j4kyOug0QfXY_9LdXEBC-780" target="j4kyOug0QfXY_9LdXEBC-781">
          <mxGeometry relative="1" as="geometry" />
        </mxCell>
        <mxCell id="j4kyOug0QfXY_9LdXEBC-779" value="否" style="edgeLabel;html=1;align=center;verticalAlign=middle;resizable=0;points=[];" vertex="1" connectable="0" parent="j4kyOug0QfXY_9LdXEBC-778">
          <mxGeometry x="0.0251" y="2" relative="1" as="geometry">
            <mxPoint as="offset" />
          </mxGeometry>
        </mxCell>
        <mxCell id="j4kyOug0QfXY_9LdXEBC-782" value="返回B仓可用库存与C仓现货库存之和" style="rounded=1;whiteSpace=wrap;html=1;" vertex="1" parent="j4kyOug0QfXY_9LdXEBC-41">
          <mxGeometry x="57.5" y="2526" width="85" height="40" as="geometry" />
        </mxCell>
        <mxCell id="j4kyOug0QfXY_9LdXEBC-776" style="edgeStyle=orthogonalEdgeStyle;rounded=0;orthogonalLoop=1;jettySize=auto;html=1;exitX=0.5;exitY=1;exitDx=0;exitDy=0;entryX=0.5;entryY=0;entryDx=0;entryDy=0;endArrow=classic;endFill=1;" edge="1" parent="j4kyOug0QfXY_9LdXEBC-41" source="j4kyOug0QfXY_9LdXEBC-780" target="j4kyOug0QfXY_9LdXEBC-782">
          <mxGeometry relative="1" as="geometry">
            <Array as="points">
              <mxPoint x="147.5" y="2510" />
              <mxPoint x="100.5" y="2510" />
            </Array>
          </mxGeometry>
        </mxCell>
        <mxCell id="j4kyOug0QfXY_9LdXEBC-777" value="是" style="edgeLabel;html=1;align=center;verticalAlign=middle;resizable=0;points=[];" vertex="1" connectable="0" parent="j4kyOug0QfXY_9LdXEBC-776">
          <mxGeometry x="-0.7409" relative="1" as="geometry">
            <mxPoint as="offset" />
          </mxGeometry>
        </mxCell>
        <mxCell id="j4kyOug0QfXY_9LdXEBC-57" style="edgeStyle=orthogonalEdgeStyle;rounded=0;orthogonalLoop=1;jettySize=auto;html=1;" edge="1" parent="1" target="j4kyOug0QfXY_9LdXEBC-55">
          <mxGeometry relative="1" as="geometry">
            <mxPoint x="880" y="520" as="targetPoint" />
            <mxPoint x="955" y="545" as="sourcePoint" />
          </mxGeometry>
        </mxCell>
        <mxCell id="j4kyOug0QfXY_9LdXEBC-85" style="edgeStyle=orthogonalEdgeStyle;rounded=0;orthogonalLoop=1;jettySize=auto;html=1;endArrow=none;endFill=0;" edge="1" parent="1">
          <mxGeometry relative="1" as="geometry">
            <mxPoint x="140" y="1290" as="sourcePoint" />
            <mxPoint x="2320" y="1290" as="targetPoint" />
            <Array as="points">
              <mxPoint x="140" y="1290" />
            </Array>
          </mxGeometry>
        </mxCell>
        <mxCell id="j4kyOug0QfXY_9LdXEBC-98" value="采购价" style="swimlane;startSize=20;" vertex="1" parent="1">
          <mxGeometry x="2030" y="390" width="290" height="8870" as="geometry" />
        </mxCell>
        <mxCell id="j4kyOug0QfXY_9LdXEBC-421" value="使用sku排期计划售卖开始时间和售卖结束时间城计划区域查询采购价" style="rounded=1;whiteSpace=wrap;html=1;" vertex="1" parent="j4kyOug0QfXY_9LdXEBC-98">
          <mxGeometry x="57.5" y="1360" width="175" height="44" as="geometry" />
        </mxCell>
        <mxCell id="j4kyOug0QfXY_9LdXEBC-424" value="返回优先级：区域促销采购价&amp;gt;区域基本采购价&amp;gt;全国促销采购价&amp;gt;全国基本采购价" style="rounded=1;whiteSpace=wrap;html=1;" vertex="1" parent="j4kyOug0QfXY_9LdXEBC-98">
          <mxGeometry x="53.75" y="1440" width="182.5" height="70" as="geometry" />
        </mxCell>
        <mxCell id="j4kyOug0QfXY_9LdXEBC-431" style="edgeStyle=orthogonalEdgeStyle;rounded=0;orthogonalLoop=1;jettySize=auto;html=1;entryX=0.5;entryY=0;entryDx=0;entryDy=0;endArrow=classic;endFill=1;" edge="1" parent="j4kyOug0QfXY_9LdXEBC-98" source="j4kyOug0QfXY_9LdXEBC-427" target="j4kyOug0QfXY_9LdXEBC-430">
          <mxGeometry relative="1" as="geometry" />
        </mxCell>
        <mxCell id="j4kyOug0QfXY_9LdXEBC-427" value="创建供应商采购价审核流程" style="rounded=1;whiteSpace=wrap;html=1;" vertex="1" parent="j4kyOug0QfXY_9LdXEBC-98">
          <mxGeometry x="57.5" y="4728" width="175" height="44" as="geometry" />
        </mxCell>
        <mxCell id="j4kyOug0QfXY_9LdXEBC-433" value="是" style="edgeStyle=orthogonalEdgeStyle;rounded=0;orthogonalLoop=1;jettySize=auto;html=1;endArrow=classic;endFill=1;" edge="1" parent="j4kyOug0QfXY_9LdXEBC-98" source="j4kyOug0QfXY_9LdXEBC-430" target="j4kyOug0QfXY_9LdXEBC-432">
          <mxGeometry relative="1" as="geometry" />
        </mxCell>
        <mxCell id="j4kyOug0QfXY_9LdXEBC-430" value="是否创建成功" style="rhombus;whiteSpace=wrap;html=1;" vertex="1" parent="j4kyOug0QfXY_9LdXEBC-98">
          <mxGeometry x="82.5" y="4831" width="125" height="80" as="geometry" />
        </mxCell>
        <mxCell id="j4kyOug0QfXY_9LdXEBC-432" value="同步供应商小程序进行审批" style="rounded=1;whiteSpace=wrap;html=1;" vertex="1" parent="j4kyOug0QfXY_9LdXEBC-98">
          <mxGeometry x="57.5" y="4970" width="175" height="44" as="geometry" />
        </mxCell>
        <mxCell id="j4kyOug0QfXY_9LdXEBC-688" style="edgeStyle=orthogonalEdgeStyle;rounded=0;orthogonalLoop=1;jettySize=auto;html=1;entryX=0.5;entryY=0;entryDx=0;entryDy=0;endArrow=classic;endFill=1;" edge="1" parent="j4kyOug0QfXY_9LdXEBC-98" source="j4kyOug0QfXY_9LdXEBC-685" target="j4kyOug0QfXY_9LdXEBC-687">
          <mxGeometry relative="1" as="geometry" />
        </mxCell>
        <mxCell id="j4kyOug0QfXY_9LdXEBC-685" value="调用采购价驳回接口" style="rounded=1;whiteSpace=wrap;html=1;" vertex="1" parent="j4kyOug0QfXY_9LdXEBC-98">
          <mxGeometry x="87.81" y="7160" width="114.37" height="44" as="geometry" />
        </mxCell>
        <mxCell id="j4kyOug0QfXY_9LdXEBC-687" value="是否驳回成功" style="rhombus;whiteSpace=wrap;html=1;" vertex="1" parent="j4kyOug0QfXY_9LdXEBC-98">
          <mxGeometry x="82.50000000000017" y="7251" width="125" height="80" as="geometry" />
        </mxCell>
        <mxCell id="j4kyOug0QfXY_9LdXEBC-693" value="重试驳回" style="rounded=1;whiteSpace=wrap;html=1;" vertex="1" parent="j4kyOug0QfXY_9LdXEBC-98">
          <mxGeometry x="85.31000000000012" y="7382" width="114.37" height="44" as="geometry" />
        </mxCell>
        <mxCell id="j4kyOug0QfXY_9LdXEBC-758" value="采购价生效" style="rounded=1;whiteSpace=wrap;html=1;" vertex="1" parent="j4kyOug0QfXY_9LdXEBC-98">
          <mxGeometry x="80" y="8570" width="120" height="40" as="geometry" />
        </mxCell>
        <mxCell id="j4kyOug0QfXY_9LdXEBC-759" value="是否采购价生效" style="rhombus;whiteSpace=wrap;html=1;" vertex="1" parent="j4kyOug0QfXY_9LdXEBC-98">
          <mxGeometry x="85" y="8650" width="110" height="60" as="geometry" />
        </mxCell>
        <mxCell id="j4kyOug0QfXY_9LdXEBC-757" style="edgeStyle=orthogonalEdgeStyle;rounded=0;orthogonalLoop=1;jettySize=auto;html=1;entryX=0.5;entryY=0;entryDx=0;entryDy=0;endArrow=classic;endFill=1;" edge="1" parent="j4kyOug0QfXY_9LdXEBC-98" source="j4kyOug0QfXY_9LdXEBC-758" target="j4kyOug0QfXY_9LdXEBC-759">
          <mxGeometry relative="1" as="geometry" />
        </mxCell>
        <mxCell id="j4kyOug0QfXY_9LdXEBC-110" style="edgeStyle=orthogonalEdgeStyle;rounded=0;orthogonalLoop=1;jettySize=auto;html=1;endArrow=classic;endFill=1;" edge="1" parent="1" source="j4kyOug0QfXY_9LdXEBC-100" target="j4kyOug0QfXY_9LdXEBC-105">
          <mxGeometry relative="1" as="geometry" />
        </mxCell>
        <mxCell id="j4kyOug0QfXY_9LdXEBC-111" style="edgeStyle=orthogonalEdgeStyle;rounded=0;orthogonalLoop=1;jettySize=auto;html=1;endArrow=classic;endFill=1;" edge="1" parent="1" source="j4kyOug0QfXY_9LdXEBC-101">
          <mxGeometry relative="1" as="geometry">
            <mxPoint x="2090" y="1770" as="targetPoint" />
          </mxGeometry>
        </mxCell>
        <mxCell id="j4kyOug0QfXY_9LdXEBC-112" value="供应商详情" style="swimlane;startSize=20;" vertex="1" parent="1">
          <mxGeometry x="2320" y="390" width="290" height="8870" as="geometry" />
        </mxCell>
        <mxCell id="j4kyOug0QfXY_9LdXEBC-368" style="edgeStyle=orthogonalEdgeStyle;rounded=0;orthogonalLoop=1;jettySize=auto;html=1;endArrow=none;endFill=0;exitX=1;exitY=1;exitDx=0;exitDy=0;" edge="1" parent="j4kyOug0QfXY_9LdXEBC-112" source="j4kyOug0QfXY_9LdXEBC-77">
          <mxGeometry relative="1" as="geometry">
            <mxPoint x="-1889" y="3490" as="sourcePoint" />
            <mxPoint x="291" y="3490" as="targetPoint" />
            <Array as="points">
              <mxPoint x="-1550" y="3490" />
              <mxPoint x="-1550" y="3490" />
            </Array>
          </mxGeometry>
        </mxCell>
        <mxCell id="j4kyOug0QfXY_9LdXEBC-105" value="返回商品实时供应商" style="rounded=1;whiteSpace=wrap;html=1;" vertex="1" parent="j4kyOug0QfXY_9LdXEBC-112">
          <mxGeometry x="100" y="1270" width="120" height="40" as="geometry" />
        </mxCell>
        <mxCell id="j4kyOug0QfXY_9LdXEBC-116" style="edgeStyle=orthogonalEdgeStyle;rounded=0;orthogonalLoop=1;jettySize=auto;html=1;entryX=0;entryY=0.5;entryDx=0;entryDy=0;endArrow=classic;endFill=1;" edge="1" parent="1" source="j4kyOug0QfXY_9LdXEBC-107" target="j4kyOug0QfXY_9LdXEBC-769">
          <mxGeometry relative="1" as="geometry">
            <mxPoint x="1825" y="1854" as="targetPoint" />
          </mxGeometry>
        </mxCell>
        <mxCell id="j4kyOug0QfXY_9LdXEBC-118" style="edgeStyle=orthogonalEdgeStyle;rounded=0;orthogonalLoop=1;jettySize=auto;html=1;endArrow=classic;endFill=1;" edge="1" parent="1" source="j4kyOug0QfXY_9LdXEBC-103" target="j4kyOug0QfXY_9LdXEBC-117">
          <mxGeometry relative="1" as="geometry" />
        </mxCell>
        <mxCell id="j4kyOug0QfXY_9LdXEBC-246" style="edgeStyle=orthogonalEdgeStyle;rounded=0;orthogonalLoop=1;jettySize=auto;html=1;endArrow=classic;endFill=1;entryX=0.5;entryY=0;entryDx=0;entryDy=0;" edge="1" parent="1" source="j4kyOug0QfXY_9LdXEBC-238" target="j4kyOug0QfXY_9LdXEBC-780">
          <mxGeometry relative="1" as="geometry">
            <mxPoint x="1870" y="2920" as="targetPoint" />
          </mxGeometry>
        </mxCell>
        <mxCell id="j4kyOug0QfXY_9LdXEBC-250" value="是" style="edgeLabel;html=1;align=center;verticalAlign=middle;resizable=0;points=[];" vertex="1" connectable="0" parent="j4kyOug0QfXY_9LdXEBC-246">
          <mxGeometry x="-0.8938" y="2" relative="1" as="geometry">
            <mxPoint as="offset" />
          </mxGeometry>
        </mxCell>
        <mxCell id="j4kyOug0QfXY_9LdXEBC-270" style="edgeStyle=orthogonalEdgeStyle;rounded=0;orthogonalLoop=1;jettySize=auto;html=1;entryX=0.5;entryY=0;entryDx=0;entryDy=0;endArrow=classic;endFill=1;" edge="1" parent="1" source="j4kyOug0QfXY_9LdXEBC-269" target="j4kyOug0QfXY_9LdXEBC-265">
          <mxGeometry relative="1" as="geometry" />
        </mxCell>
        <mxCell id="j4kyOug0QfXY_9LdXEBC-358" style="edgeStyle=orthogonalEdgeStyle;rounded=0;orthogonalLoop=1;jettySize=auto;html=1;entryX=0.5;entryY=0;entryDx=0;entryDy=0;endArrow=classic;endFill=1;" edge="1" parent="1" source="j4kyOug0QfXY_9LdXEBC-357" target="j4kyOug0QfXY_9LdXEBC-307">
          <mxGeometry relative="1" as="geometry" />
        </mxCell>
        <mxCell id="j4kyOug0QfXY_9LdXEBC-360" value="否" style="edgeLabel;html=1;align=center;verticalAlign=middle;resizable=0;points=[];" vertex="1" connectable="0" parent="j4kyOug0QfXY_9LdXEBC-358">
          <mxGeometry x="-0.1613" relative="1" as="geometry">
            <mxPoint as="offset" />
          </mxGeometry>
        </mxCell>
        <mxCell id="j4kyOug0QfXY_9LdXEBC-361" style="edgeStyle=orthogonalEdgeStyle;rounded=0;orthogonalLoop=1;jettySize=auto;html=1;entryX=0;entryY=0.5;entryDx=0;entryDy=0;endArrow=classic;endFill=1;" edge="1" parent="1" source="j4kyOug0QfXY_9LdXEBC-357" target="j4kyOug0QfXY_9LdXEBC-359">
          <mxGeometry relative="1" as="geometry" />
        </mxCell>
        <mxCell id="j4kyOug0QfXY_9LdXEBC-362" value="是" style="edgeLabel;html=1;align=center;verticalAlign=middle;resizable=0;points=[];" vertex="1" connectable="0" parent="j4kyOug0QfXY_9LdXEBC-361">
          <mxGeometry x="-0.0809" y="3" relative="1" as="geometry">
            <mxPoint as="offset" />
          </mxGeometry>
        </mxCell>
        <mxCell id="j4kyOug0QfXY_9LdXEBC-367" style="edgeStyle=orthogonalEdgeStyle;rounded=0;orthogonalLoop=1;jettySize=auto;html=1;entryX=0.5;entryY=0;entryDx=0;entryDy=0;endArrow=classic;endFill=1;" edge="1" parent="1" source="j4kyOug0QfXY_9LdXEBC-317" target="j4kyOug0QfXY_9LdXEBC-363">
          <mxGeometry relative="1" as="geometry" />
        </mxCell>
        <mxCell id="j4kyOug0QfXY_9LdXEBC-397" style="edgeStyle=orthogonalEdgeStyle;rounded=0;orthogonalLoop=1;jettySize=auto;html=1;entryX=0;entryY=0.5;entryDx=0;entryDy=0;endArrow=classic;endFill=1;" edge="1" parent="1" source="j4kyOug0QfXY_9LdXEBC-387" target="j4kyOug0QfXY_9LdXEBC-390">
          <mxGeometry relative="1" as="geometry" />
        </mxCell>
        <mxCell id="j4kyOug0QfXY_9LdXEBC-412" style="edgeStyle=orthogonalEdgeStyle;rounded=0;orthogonalLoop=1;jettySize=auto;html=1;entryX=0;entryY=0.5;entryDx=0;entryDy=0;endArrow=classic;endFill=1;exitX=0.5;exitY=1;exitDx=0;exitDy=0;" edge="1" parent="1" source="j4kyOug0QfXY_9LdXEBC-407" target="j4kyOug0QfXY_9LdXEBC-399">
          <mxGeometry relative="1" as="geometry">
            <Array as="points">
              <mxPoint x="297" y="5020" />
            </Array>
          </mxGeometry>
        </mxCell>
        <mxCell id="j4kyOug0QfXY_9LdXEBC-394" style="edgeStyle=orthogonalEdgeStyle;rounded=0;orthogonalLoop=1;jettySize=auto;html=1;entryX=0;entryY=0.5;entryDx=0;entryDy=0;" edge="1" parent="1" source="j4kyOug0QfXY_9LdXEBC-392" target="j4kyOug0QfXY_9LdXEBC-393">
          <mxGeometry relative="1" as="geometry" />
        </mxCell>
        <mxCell id="j4kyOug0QfXY_9LdXEBC-395" value="是" style="edgeLabel;html=1;align=center;verticalAlign=middle;resizable=0;points=[];" vertex="1" connectable="0" parent="j4kyOug0QfXY_9LdXEBC-394">
          <mxGeometry x="-0.1758" y="1" relative="1" as="geometry">
            <mxPoint as="offset" />
          </mxGeometry>
        </mxCell>
        <mxCell id="j4kyOug0QfXY_9LdXEBC-425" style="edgeStyle=orthogonalEdgeStyle;rounded=0;orthogonalLoop=1;jettySize=auto;html=1;entryX=0;entryY=0.5;entryDx=0;entryDy=0;endArrow=classic;endFill=1;exitX=0.5;exitY=1;exitDx=0;exitDy=0;" edge="1" parent="1" source="j4kyOug0QfXY_9LdXEBC-408" target="j4kyOug0QfXY_9LdXEBC-414">
          <mxGeometry relative="1" as="geometry" />
        </mxCell>
        <mxCell id="j4kyOug0QfXY_9LdXEBC-428" style="edgeStyle=orthogonalEdgeStyle;rounded=0;orthogonalLoop=1;jettySize=auto;html=1;entryX=0;entryY=0.5;entryDx=0;entryDy=0;endArrow=classic;endFill=1;" edge="1" parent="1" source="j4kyOug0QfXY_9LdXEBC-400" target="j4kyOug0QfXY_9LdXEBC-427">
          <mxGeometry relative="1" as="geometry" />
        </mxCell>
        <mxCell id="j4kyOug0QfXY_9LdXEBC-434" style="edgeStyle=orthogonalEdgeStyle;rounded=0;orthogonalLoop=1;jettySize=auto;html=1;entryX=1;entryY=0.5;entryDx=0;entryDy=0;endArrow=classic;endFill=1;" edge="1" parent="1" source="j4kyOug0QfXY_9LdXEBC-432" target="j4kyOug0QfXY_9LdXEBC-402">
          <mxGeometry relative="1" as="geometry" />
        </mxCell>
        <mxCell id="j4kyOug0QfXY_9LdXEBC-458" style="edgeStyle=orthogonalEdgeStyle;rounded=0;orthogonalLoop=1;jettySize=auto;html=1;entryX=1;entryY=0.5;entryDx=0;entryDy=0;endArrow=classic;endFill=1;" edge="1" parent="1" source="j4kyOug0QfXY_9LdXEBC-430" target="j4kyOug0QfXY_9LdXEBC-457">
          <mxGeometry relative="1" as="geometry" />
        </mxCell>
        <mxCell id="j4kyOug0QfXY_9LdXEBC-459" value="否" style="edgeLabel;html=1;align=center;verticalAlign=middle;resizable=0;points=[];" vertex="1" connectable="0" parent="j4kyOug0QfXY_9LdXEBC-458">
          <mxGeometry x="-0.9396" y="-2" relative="1" as="geometry">
            <mxPoint as="offset" />
          </mxGeometry>
        </mxCell>
        <mxCell id="j4kyOug0QfXY_9LdXEBC-473" style="edgeStyle=orthogonalEdgeStyle;rounded=0;orthogonalLoop=1;jettySize=auto;html=1;entryX=0;entryY=0.5;entryDx=0;entryDy=0;endArrow=classic;endFill=1;" edge="1" parent="1" source="j4kyOug0QfXY_9LdXEBC-462" target="j4kyOug0QfXY_9LdXEBC-466">
          <mxGeometry relative="1" as="geometry" />
        </mxCell>
        <mxCell id="j4kyOug0QfXY_9LdXEBC-495" style="edgeStyle=orthogonalEdgeStyle;rounded=0;orthogonalLoop=1;jettySize=auto;html=1;endArrow=classic;endFill=1;" edge="1" parent="1" source="j4kyOug0QfXY_9LdXEBC-435" target="j4kyOug0QfXY_9LdXEBC-461">
          <mxGeometry relative="1" as="geometry" />
        </mxCell>
        <mxCell id="j4kyOug0QfXY_9LdXEBC-496" value="否" style="edgeLabel;html=1;align=center;verticalAlign=middle;resizable=0;points=[];" vertex="1" connectable="0" parent="j4kyOug0QfXY_9LdXEBC-495">
          <mxGeometry x="-0.193" y="-4" relative="1" as="geometry">
            <mxPoint as="offset" />
          </mxGeometry>
        </mxCell>
        <mxCell id="j4kyOug0QfXY_9LdXEBC-490" style="edgeStyle=orthogonalEdgeStyle;rounded=0;orthogonalLoop=1;jettySize=auto;html=1;endArrow=classic;endFill=1;exitX=0.5;exitY=1;exitDx=0;exitDy=0;" edge="1" parent="1" target="j4kyOug0QfXY_9LdXEBC-483" source="j4kyOug0QfXY_9LdXEBC-435">
          <mxGeometry relative="1" as="geometry">
            <mxPoint x="973.5" y="5840" as="sourcePoint" />
            <Array as="points">
              <mxPoint x="1015" y="5850" />
            </Array>
          </mxGeometry>
        </mxCell>
        <mxCell id="j4kyOug0QfXY_9LdXEBC-491" value="是" style="edgeLabel;html=1;align=center;verticalAlign=middle;resizable=0;points=[];" vertex="1" connectable="0" parent="j4kyOug0QfXY_9LdXEBC-490">
          <mxGeometry x="-0.1569" y="-2" relative="1" as="geometry">
            <mxPoint as="offset" />
          </mxGeometry>
        </mxCell>
        <mxCell id="j4kyOug0QfXY_9LdXEBC-471" style="edgeStyle=orthogonalEdgeStyle;rounded=0;orthogonalLoop=1;jettySize=auto;html=1;entryX=0;entryY=0.5;entryDx=0;entryDy=0;" edge="1" parent="1" source="j4kyOug0QfXY_9LdXEBC-468" target="j4kyOug0QfXY_9LdXEBC-470">
          <mxGeometry relative="1" as="geometry" />
        </mxCell>
        <mxCell id="j4kyOug0QfXY_9LdXEBC-472" value="是" style="edgeLabel;html=1;align=center;verticalAlign=middle;resizable=0;points=[];" vertex="1" connectable="0" parent="j4kyOug0QfXY_9LdXEBC-471">
          <mxGeometry x="-0.1758" y="1" relative="1" as="geometry">
            <mxPoint as="offset" />
          </mxGeometry>
        </mxCell>
        <mxCell id="j4kyOug0QfXY_9LdXEBC-651" style="edgeStyle=orthogonalEdgeStyle;rounded=0;orthogonalLoop=1;jettySize=auto;html=1;endArrow=classic;endFill=1;" edge="1" parent="1" source="j4kyOug0QfXY_9LdXEBC-650" target="j4kyOug0QfXY_9LdXEBC-510">
          <mxGeometry relative="1" as="geometry" />
        </mxCell>
        <mxCell id="j4kyOug0QfXY_9LdXEBC-654" style="edgeStyle=orthogonalEdgeStyle;rounded=0;orthogonalLoop=1;jettySize=auto;html=1;entryX=1;entryY=0.5;entryDx=0;entryDy=0;endArrow=classic;endFill=1;" edge="1" parent="1" source="j4kyOug0QfXY_9LdXEBC-653" target="j4kyOug0QfXY_9LdXEBC-507">
          <mxGeometry relative="1" as="geometry" />
        </mxCell>
        <mxCell id="j4kyOug0QfXY_9LdXEBC-656" style="edgeStyle=orthogonalEdgeStyle;rounded=0;orthogonalLoop=1;jettySize=auto;html=1;entryX=1;entryY=0.5;entryDx=0;entryDy=0;endArrow=classic;endFill=1;" edge="1" parent="1" source="j4kyOug0QfXY_9LdXEBC-655" target="j4kyOug0QfXY_9LdXEBC-509">
          <mxGeometry relative="1" as="geometry" />
        </mxCell>
        <mxCell id="j4kyOug0QfXY_9LdXEBC-663" style="edgeStyle=orthogonalEdgeStyle;rounded=0;orthogonalLoop=1;jettySize=auto;html=1;entryX=0;entryY=0.5;entryDx=0;entryDy=0;endArrow=classic;endFill=1;" edge="1" parent="1" source="j4kyOug0QfXY_9LdXEBC-661" target="j4kyOug0QfXY_9LdXEBC-662">
          <mxGeometry relative="1" as="geometry" />
        </mxCell>
        <mxCell id="j4kyOug0QfXY_9LdXEBC-668" style="edgeStyle=orthogonalEdgeStyle;rounded=0;orthogonalLoop=1;jettySize=auto;html=1;entryX=1;entryY=0.5;entryDx=0;entryDy=0;endArrow=classic;endFill=1;" edge="1" parent="1" source="j4kyOug0QfXY_9LdXEBC-665" target="j4kyOug0QfXY_9LdXEBC-667">
          <mxGeometry relative="1" as="geometry" />
        </mxCell>
        <mxCell id="j4kyOug0QfXY_9LdXEBC-670" value="是" style="edgeLabel;html=1;align=center;verticalAlign=middle;resizable=0;points=[];" vertex="1" connectable="0" parent="j4kyOug0QfXY_9LdXEBC-668">
          <mxGeometry x="-0.8975" y="-2" relative="1" as="geometry">
            <mxPoint x="1" as="offset" />
          </mxGeometry>
        </mxCell>
        <mxCell id="j4kyOug0QfXY_9LdXEBC-673" style="edgeStyle=orthogonalEdgeStyle;rounded=0;orthogonalLoop=1;jettySize=auto;html=1;entryX=1;entryY=0.5;entryDx=0;entryDy=0;endArrow=classic;endFill=1;exitX=0.5;exitY=1;exitDx=0;exitDy=0;" edge="1" parent="1" source="j4kyOug0QfXY_9LdXEBC-665" target="j4kyOug0QfXY_9LdXEBC-671">
          <mxGeometry relative="1" as="geometry" />
        </mxCell>
        <mxCell id="j4kyOug0QfXY_9LdXEBC-674" value="否" style="edgeLabel;html=1;align=center;verticalAlign=middle;resizable=0;points=[];" vertex="1" connectable="0" parent="j4kyOug0QfXY_9LdXEBC-673">
          <mxGeometry x="-0.6989" relative="1" as="geometry">
            <mxPoint y="1" as="offset" />
          </mxGeometry>
        </mxCell>
        <mxCell id="j4kyOug0QfXY_9LdXEBC-686" style="edgeStyle=orthogonalEdgeStyle;rounded=0;orthogonalLoop=1;jettySize=auto;html=1;entryX=0;entryY=0.5;entryDx=0;entryDy=0;endArrow=classic;endFill=1;" edge="1" parent="1" source="j4kyOug0QfXY_9LdXEBC-683" target="j4kyOug0QfXY_9LdXEBC-685">
          <mxGeometry relative="1" as="geometry" />
        </mxCell>
        <mxCell id="j4kyOug0QfXY_9LdXEBC-690" style="edgeStyle=orthogonalEdgeStyle;rounded=0;orthogonalLoop=1;jettySize=auto;html=1;endArrow=classic;endFill=1;entryX=1;entryY=0.5;entryDx=0;entryDy=0;" edge="1" parent="1" source="j4kyOug0QfXY_9LdXEBC-687" target="j4kyOug0QfXY_9LdXEBC-689">
          <mxGeometry relative="1" as="geometry">
            <mxPoint x="430" y="7641" as="targetPoint" />
          </mxGeometry>
        </mxCell>
        <mxCell id="j4kyOug0QfXY_9LdXEBC-691" value="是" style="edgeLabel;html=1;align=center;verticalAlign=middle;resizable=0;points=[];" vertex="1" connectable="0" parent="j4kyOug0QfXY_9LdXEBC-690">
          <mxGeometry x="-0.9431" y="-2" relative="1" as="geometry">
            <mxPoint as="offset" />
          </mxGeometry>
        </mxCell>
        <mxCell id="j4kyOug0QfXY_9LdXEBC-692" style="edgeStyle=orthogonalEdgeStyle;rounded=0;orthogonalLoop=1;jettySize=auto;html=1;endArrow=classic;endFill=1;" edge="1" parent="1" source="j4kyOug0QfXY_9LdXEBC-687">
          <mxGeometry relative="1" as="geometry">
            <mxPoint x="2174.9999999999995" y="7772" as="targetPoint" />
          </mxGeometry>
        </mxCell>
        <mxCell id="j4kyOug0QfXY_9LdXEBC-694" value="否" style="edgeLabel;html=1;align=center;verticalAlign=middle;resizable=0;points=[];" vertex="1" connectable="0" parent="j4kyOug0QfXY_9LdXEBC-692">
          <mxGeometry x="-0.1895" y="-1" relative="1" as="geometry">
            <mxPoint as="offset" />
          </mxGeometry>
        </mxCell>
        <mxCell id="j4kyOug0QfXY_9LdXEBC-703" style="edgeStyle=orthogonalEdgeStyle;rounded=0;orthogonalLoop=1;jettySize=auto;html=1;entryX=0;entryY=0.5;entryDx=0;entryDy=0;endArrow=classic;endFill=1;exitX=0.442;exitY=0.992;exitDx=0;exitDy=0;exitPerimeter=0;" edge="1" parent="1" source="j4kyOug0QfXY_9LdXEBC-689" target="j4kyOug0QfXY_9LdXEBC-696">
          <mxGeometry relative="1" as="geometry" />
        </mxCell>
        <mxCell id="j4kyOug0QfXY_9LdXEBC-709" style="edgeStyle=orthogonalEdgeStyle;rounded=0;orthogonalLoop=1;jettySize=auto;html=1;endArrow=classic;endFill=1;entryX=0;entryY=0.5;entryDx=0;entryDy=0;" edge="1" parent="1" source="j4kyOug0QfXY_9LdXEBC-705" target="j4kyOug0QfXY_9LdXEBC-708">
          <mxGeometry relative="1" as="geometry" />
        </mxCell>
        <mxCell id="j4kyOug0QfXY_9LdXEBC-713" style="edgeStyle=orthogonalEdgeStyle;rounded=0;orthogonalLoop=1;jettySize=auto;html=1;entryX=1;entryY=0.5;entryDx=0;entryDy=0;endArrow=classic;endFill=1;" edge="1" parent="1" source="j4kyOug0QfXY_9LdXEBC-710" target="j4kyOug0QfXY_9LdXEBC-712">
          <mxGeometry relative="1" as="geometry" />
        </mxCell>
        <mxCell id="j4kyOug0QfXY_9LdXEBC-714" value="否" style="edgeLabel;html=1;align=center;verticalAlign=middle;resizable=0;points=[];" vertex="1" connectable="0" parent="j4kyOug0QfXY_9LdXEBC-713">
          <mxGeometry x="-0.9535" y="-2" relative="1" as="geometry">
            <mxPoint as="offset" />
          </mxGeometry>
        </mxCell>
        <mxCell id="j4kyOug0QfXY_9LdXEBC-716" style="edgeStyle=orthogonalEdgeStyle;rounded=0;orthogonalLoop=1;jettySize=auto;html=1;entryX=1;entryY=0.5;entryDx=0;entryDy=0;endArrow=classic;endFill=1;exitX=0.5;exitY=1;exitDx=0;exitDy=0;" edge="1" parent="1" source="j4kyOug0QfXY_9LdXEBC-710" target="j4kyOug0QfXY_9LdXEBC-715">
          <mxGeometry relative="1" as="geometry" />
        </mxCell>
        <mxCell id="j4kyOug0QfXY_9LdXEBC-717" value="是" style="edgeLabel;html=1;align=center;verticalAlign=middle;resizable=0;points=[];" vertex="1" connectable="0" parent="j4kyOug0QfXY_9LdXEBC-716">
          <mxGeometry x="-0.9735" relative="1" as="geometry">
            <mxPoint as="offset" />
          </mxGeometry>
        </mxCell>
        <mxCell id="j4kyOug0QfXY_9LdXEBC-721" style="edgeStyle=orthogonalEdgeStyle;rounded=0;orthogonalLoop=1;jettySize=auto;html=1;endArrow=classic;endFill=1;entryX=0;entryY=0.5;entryDx=0;entryDy=0;" edge="1" parent="1" source="j4kyOug0QfXY_9LdXEBC-706" target="j4kyOug0QfXY_9LdXEBC-720">
          <mxGeometry relative="1" as="geometry">
            <mxPoint x="1840" y="8270" as="targetPoint" />
          </mxGeometry>
        </mxCell>
        <mxCell id="j4kyOug0QfXY_9LdXEBC-752" style="edgeStyle=orthogonalEdgeStyle;rounded=0;orthogonalLoop=1;jettySize=auto;html=1;endArrow=classic;endFill=1;" edge="1" parent="1" source="j4kyOug0QfXY_9LdXEBC-746" target="j4kyOug0QfXY_9LdXEBC-749">
          <mxGeometry relative="1" as="geometry" />
        </mxCell>
        <mxCell id="j4kyOug0QfXY_9LdXEBC-755" value="否" style="edgeLabel;html=1;align=center;verticalAlign=middle;resizable=0;points=[];" vertex="1" connectable="0" parent="j4kyOug0QfXY_9LdXEBC-752">
          <mxGeometry x="-0.9477" y="1" relative="1" as="geometry">
            <mxPoint as="offset" />
          </mxGeometry>
        </mxCell>
        <mxCell id="j4kyOug0QfXY_9LdXEBC-753" style="edgeStyle=orthogonalEdgeStyle;rounded=0;orthogonalLoop=1;jettySize=auto;html=1;entryX=1;entryY=0.5;entryDx=0;entryDy=0;endArrow=classic;endFill=1;" edge="1" parent="1" target="j4kyOug0QfXY_9LdXEBC-750">
          <mxGeometry relative="1" as="geometry">
            <mxPoint x="1900" y="8880" as="sourcePoint" />
            <Array as="points">
              <mxPoint x="1900" y="8920" />
            </Array>
          </mxGeometry>
        </mxCell>
        <mxCell id="j4kyOug0QfXY_9LdXEBC-754" value="是" style="edgeLabel;html=1;align=center;verticalAlign=middle;resizable=0;points=[];" vertex="1" connectable="0" parent="j4kyOug0QfXY_9LdXEBC-753">
          <mxGeometry x="-0.8174" y="-2" relative="1" as="geometry">
            <mxPoint as="offset" />
          </mxGeometry>
        </mxCell>
        <mxCell id="j4kyOug0QfXY_9LdXEBC-762" style="edgeStyle=orthogonalEdgeStyle;rounded=0;orthogonalLoop=1;jettySize=auto;html=1;entryX=0;entryY=0.5;entryDx=0;entryDy=0;endArrow=classic;endFill=1;" edge="1" parent="1" source="j4kyOug0QfXY_9LdXEBC-707" target="j4kyOug0QfXY_9LdXEBC-758">
          <mxGeometry relative="1" as="geometry" />
        </mxCell>
        <mxCell id="j4kyOug0QfXY_9LdXEBC-765" style="edgeStyle=orthogonalEdgeStyle;rounded=0;orthogonalLoop=1;jettySize=auto;html=1;entryX=1;entryY=0.5;entryDx=0;entryDy=0;endArrow=classic;endFill=1;" edge="1" parent="1" source="j4kyOug0QfXY_9LdXEBC-759" target="j4kyOug0QfXY_9LdXEBC-763">
          <mxGeometry relative="1" as="geometry" />
        </mxCell>
        <mxCell id="j4kyOug0QfXY_9LdXEBC-767" value="否" style="edgeLabel;html=1;align=center;verticalAlign=middle;resizable=0;points=[];" vertex="1" connectable="0" parent="j4kyOug0QfXY_9LdXEBC-765">
          <mxGeometry x="-0.9625" y="-2" relative="1" as="geometry">
            <mxPoint as="offset" />
          </mxGeometry>
        </mxCell>
        <mxCell id="j4kyOug0QfXY_9LdXEBC-766" style="edgeStyle=orthogonalEdgeStyle;rounded=0;orthogonalLoop=1;jettySize=auto;html=1;entryX=1;entryY=0.5;entryDx=0;entryDy=0;endArrow=classic;endFill=1;exitX=0.5;exitY=1;exitDx=0;exitDy=0;" edge="1" parent="1" source="j4kyOug0QfXY_9LdXEBC-759" target="j4kyOug0QfXY_9LdXEBC-764">
          <mxGeometry relative="1" as="geometry" />
        </mxCell>
        <mxCell id="j4kyOug0QfXY_9LdXEBC-768" value="是" style="edgeLabel;html=1;align=center;verticalAlign=middle;resizable=0;points=[];" vertex="1" connectable="0" parent="j4kyOug0QfXY_9LdXEBC-766">
          <mxGeometry x="-0.8392" relative="1" as="geometry">
            <mxPoint as="offset" />
          </mxGeometry>
        </mxCell>
        <mxCell id="j4kyOug0QfXY_9LdXEBC-784" style="edgeStyle=orthogonalEdgeStyle;rounded=0;orthogonalLoop=1;jettySize=auto;html=1;endArrow=none;endFill=0;entryX=1;entryY=0.5;entryDx=0;entryDy=0;" edge="1" parent="1" target="j4kyOug0QfXY_9LdXEBC-247">
          <mxGeometry relative="1" as="geometry">
            <mxPoint x="1840.5" y="2976" as="targetPoint" />
            <mxPoint x="1962.5" y="2946" as="sourcePoint" />
            <Array as="points">
              <mxPoint x="1963" y="2987" />
            </Array>
          </mxGeometry>
        </mxCell>
        <mxCell id="j4kyOug0QfXY_9LdXEBC-790" style="edgeStyle=orthogonalEdgeStyle;rounded=0;orthogonalLoop=1;jettySize=auto;html=1;endArrow=none;endFill=0;exitX=0.5;exitY=1;exitDx=0;exitDy=0;" edge="1" parent="1" source="j4kyOug0QfXY_9LdXEBC-782">
          <mxGeometry relative="1" as="geometry">
            <mxPoint x="1840" y="2987" as="targetPoint" />
            <mxPoint x="1840" y="2958" as="sourcePoint" />
            <Array as="points" />
          </mxGeometry>
        </mxCell>
      </root>
    </mxGraphModel>
  </diagram>
</mxfile>
